<?xml version="1.0" encoding="utf-8"?><svg width="69" height="60" viewBox="0 0 69 60" fill="none" xmlns="http://www.w3.org/2000/svg">
<path d="M34.1331 0.0131522L18.9379 26.355C24.7068 24.574 30.9137 24.3079 36.9313 25.7248L42.0706 26.9358L37.2436 47.439L32.0967 46.228C25.7716 44.7385 19.6942 48.0632 17.1278 53.3645L12.3701 51.065C15.9975 43.5659 24.551 39.023 33.3113 41.0862L35.7175 30.8676C27.0833 28.8357 17.9852 30.8649 11.0316 36.3737C4.07864 41.8811 0.0193642 50.2745 0.0227826 59.1449L68.2894 59.1194L34.1331 0.0131522Z" fill="#60A5FA" />
<ellipse cx="19.178" cy="16.4131" rx="7.5" ry="11" fill="#D9D9D9" />
<path d="M20.678 16.4131C20.678 19.1746 19.111 21.4131 17.178 21.4131C15.245 21.4131 13.678 19.1746 13.678 16.4131C13.678 13.6517 15.245 11.4131 17.178 11.4131C19.111 11.4131 20.678 13.6517 20.678 16.4131Z" fill="black" />
<circle cx="16.178" cy="14.9131" r="0.5" fill="#D9D9D9" />
<ellipse cx="46.178" cy="17.4131" rx="7.5" ry="11" fill="#D9D9D9" />
<path d="M47.678 16.4131C47.678 19.1746 46.111 21.4131 44.178 21.4131C42.245 21.4131 40.678 19.1746 40.678 16.4131C40.678 13.6517 42.245 11.4131 44.178 11.4131C46.111 11.4131 47.678 13.6517 47.678 16.4131Z" fill="black" />
<circle cx="42.178" cy="15.9131" r="0.5" fill="#D9D9D9" />
<circle cx="29.178" cy="37.9131" r="8.5" fill="#765413" />
<path d="M28.7852 38.4131C28.7852 38.855 28.4334 39.2131 27.9995 39.2131C27.5655 39.2131 27.2138 38.855 27.2138 38.4131C27.2138 37.9713 27.5655 37.6131 27.9995 37.6131C28.4334 37.6131 28.7852 37.9713 28.7852 38.4131Z" fill="#2E230E" />
<path d="M34.678 40.0131C34.678 40.455 34.3263 40.8131 33.8923 40.8131C33.4584 40.8131 33.1066 40.455 33.1066 40.0131C33.1066 39.5713 33.4584 39.2131 33.8923 39.2131C34.3263 39.2131 34.678 39.5713 34.678 40.0131Z" fill="#2E230E" />
<path d="M31.1423 33.2131C31.1423 33.655 30.7905 34.0131 30.3566 34.0131C29.9227 34.0131 29.5709 33.655 29.5709 33.2131C29.5709 32.7713 29.9227 32.4131 30.3566 32.4131C30.7905 32.4131 31.1423 32.7713 31.1423 33.2131Z" fill="#2E230E" />
<path d="M25.2495 39.2131C25.2495 39.655 24.8977 40.0131 24.4638 40.0131C24.0298 40.0131 23.678 39.655 23.678 39.2131C23.678 38.7713 24.0298 38.4131 24.4638 38.4131C24.8977 38.4131 25.2495 38.7713 25.2495 39.2131Z" fill="#2E230E" />
<path d="M28.3923 43.6131C28.3923 44.055 28.0405 44.4131 27.6066 44.4131C27.1727 44.4131 26.8209 44.055 26.8209 43.6131C26.8209 43.1713 27.1727 42.8131 27.6066 42.8131C28.0405 42.8131 28.3923 43.1713 28.3923 43.6131Z" fill="#2E230E" />
<path d="M33.8923 34.8131C33.8923 35.255 33.5405 35.6131 33.1066 35.6131C32.6727 35.6131 32.3209 35.255 32.3209 34.8131C32.3209 34.3713 32.6727 34.0131 33.1066 34.0131C33.5405 34.0131 33.8923 34.3713 33.8923 34.8131Z" fill="#2E230E" />
</svg>
