<?xml version="1.0" encoding="utf-8"?><svg width="69" height="60" viewBox="0 0 69 60" fill="none" xmlns="http://www.w3.org/2000/svg">
<path d="M34.4551 0.600005L19.2599 26.9419C25.0288 25.1609 31.2356 24.8948 37.2533 26.3116L42.3926 27.5227L37.5655 48.0259L32.4187 46.8148C26.0935 45.3253 20.0162 48.65 17.4497 53.9514L12.692 51.6519C16.3194 44.1528 24.873 39.6098 33.6333 41.673L36.0394 31.4545C27.4053 29.4225 18.3072 31.4517 11.3536 36.9605C4.4006 42.468 0.341325 50.8613 0.344743 59.7317L68.6114 59.7063L34.4551 0.600005Z" fill="#60A5FA" />
<ellipse cx="19.5" cy="17" rx="7.5" ry="11" fill="#D9D9D9" />
<path d="M21 17C21 19.7614 19.433 22 17.5 22C15.567 22 14 19.7614 14 17C14 14.2386 15.567 12 17.5 12C19.433 12 21 14.2386 21 17Z" fill="black" />
<circle cx="16.5" cy="15.5" r="0.5" fill="#D9D9D9" />
<ellipse cx="46.5" cy="18" rx="7.5" ry="11" fill="#D9D9D9" />
<path d="M48 17C48 19.7614 46.433 22 44.5 22C42.567 22 41 19.7614 41 17C41 14.2386 42.567 12 44.5 12C46.433 12 48 14.2386 48 17Z" fill="black" />
<circle cx="42.5" cy="16.5" r="0.5" fill="#D9D9D9" />
</svg>
