<?xml version="1.0" encoding="utf-8"?><svg width="71" height="60" viewBox="0 0 71 60" fill="none" xmlns="http://www.w3.org/2000/svg">
<path d="M34.1331 0.0131522L18.9379 26.355C24.7068 24.574 30.9137 24.3079 36.9313 25.7248L42.0706 26.9358L37.2436 47.439L32.0967 46.228C25.7716 44.7385 19.6942 48.0632 17.1278 53.3645L12.3701 51.065C15.9975 43.5659 24.551 39.023 33.3113 41.0862L35.7175 30.8676C27.0833 28.8357 17.9852 30.8649 11.0316 36.3737C4.07864 41.8811 0.0193642 50.2745 0.0227826 59.1449L68.2894 59.1194L34.1331 0.0131522Z" fill="#60A5FA" />
<ellipse cx="19.178" cy="16.4131" rx="7.5" ry="11" fill="#D9D9D9" />
<path d="M20.678 16.4131C20.678 19.1746 19.111 21.4131 17.178 21.4131C15.245 21.4131 13.678 19.1746 13.678 16.4131C13.678 13.6517 15.245 11.4131 17.178 11.4131C19.111 11.4131 20.678 13.6517 20.678 16.4131Z" fill="black" />
<circle cx="16.178" cy="14.9131" r="0.5" fill="#D9D9D9" />
<ellipse cx="46.178" cy="17.4131" rx="7.5" ry="11" fill="#D9D9D9" />
<path d="M47.678 16.4131C47.678 19.1746 46.111 21.4131 44.178 21.4131C42.245 21.4131 40.678 19.1746 40.678 16.4131C40.678 13.6517 42.245 11.4131 44.178 11.4131C46.111 11.4131 47.678 13.6517 47.678 16.4131Z" fill="black" />
<circle cx="42.178" cy="15.9131" r="0.5" fill="#D9D9D9" />
<rect x="51" y="32" width="5" height="27" fill="#D9D9D9" />
<path d="M61 32H66V45.5V59H61V32Z" fill="#D9D9D9" />
<rect x="56" y="32" width="5" height="27" fill="#E93232" />
<path d="M66 32H71L68 59H66V32Z" fill="#E93232" />
<path d="M46 32H51V59H49L46 32Z" fill="#E93232" />
<circle cx="48.5" cy="30.5" r="2.5" fill="#E2E3B7" />
<circle cx="48.5" cy="30.5" r="2.5" fill="#E2E3B7" />
<circle cx="50.5" cy="28.5" r="2.5" fill="#E2E3B7" />
<circle cx="50.5" cy="28.5" r="2.5" fill="#E2E3B7" />
<circle cx="52.5" cy="30.5" r="2.5" fill="#E2E3B7" />
<circle cx="52.5" cy="30.5" r="2.5" fill="#E2E3B7" />
<ellipse cx="26.8889" cy="37.7143" rx="3.88889" ry="4.28571" fill="#E2E3B7" />
<ellipse cx="26.8889" cy="37.7143" rx="3.88889" ry="4.28571" fill="#E2E3B7" />
<ellipse cx="30" cy="34.2857" rx="3.88889" ry="4.28571" fill="#E2E3B7" />
<ellipse cx="30" cy="34.2857" rx="3.88889" ry="4.28571" fill="#E2E3B7" />
<ellipse cx="33.1111" cy="37.7143" rx="3.88889" ry="4.28571" fill="#E2E3B7" />
<ellipse cx="33.1111" cy="37.7143" rx="3.88889" ry="4.28571" fill="#E2E3B7" />
<circle cx="52.5" cy="26.5" r="2.5" fill="#E2E3B7" />
<circle cx="52.5" cy="26.5" r="2.5" fill="#E2E3B7" />
<circle cx="54.5" cy="24.5" r="2.5" fill="#E2E3B7" />
<circle cx="54.5" cy="24.5" r="2.5" fill="#E2E3B7" />
<circle cx="56.5" cy="26.5" r="2.5" fill="#E2E3B7" />
<circle cx="56.5" cy="26.5" r="2.5" fill="#E2E3B7" />
<circle cx="59.5" cy="25.5" r="2.5" fill="#E2E3B7" />
<circle cx="59.5" cy="25.5" r="2.5" fill="#E2E3B7" />
<circle cx="61.5" cy="23.5" r="2.5" fill="#E2E3B7" />
<circle cx="61.5" cy="23.5" r="2.5" fill="#E2E3B7" />
<circle cx="63.5" cy="25.5" r="2.5" fill="#E2E3B7" />
<circle cx="63.5" cy="25.5" r="2.5" fill="#E2E3B7" />
<circle cx="54.5" cy="30.5" r="2.5" fill="#E2E3B7" />
<circle cx="54.5" cy="30.5" r="2.5" fill="#E2E3B7" />
<circle cx="56.5" cy="28.5" r="2.5" fill="#E2E3B7" />
<circle cx="56.5" cy="28.5" r="2.5" fill="#E2E3B7" />
<circle cx="58.5" cy="30.5" r="2.5" fill="#E2E3B7" />
<circle cx="58.5" cy="30.5" r="2.5" fill="#E2E3B7" />
<circle cx="59.5" cy="30.5" r="2.5" fill="#E2E3B7" />
<circle cx="59.5" cy="30.5" r="2.5" fill="#E2E3B7" />
<circle cx="61.5" cy="28.5" r="2.5" fill="#E2E3B7" />
<circle cx="61.5" cy="28.5" r="2.5" fill="#E2E3B7" />
<circle cx="63.5" cy="30.5" r="2.5" fill="#E2E3B7" />
<circle cx="63.5" cy="30.5" r="2.5" fill="#E2E3B7" />
<circle cx="64.5" cy="30.5" r="2.5" fill="#E2E3B7" />
<circle cx="64.5" cy="30.5" r="2.5" fill="#E2E3B7" />
<circle cx="66.5" cy="28.5" r="2.5" fill="#E2E3B7" />
<circle cx="66.5" cy="28.5" r="2.5" fill="#E2E3B7" />
<circle cx="68.5" cy="30.5" r="2.5" fill="#E2E3B7" />
<circle cx="68.5" cy="30.5" r="2.5" fill="#E2E3B7" />
</svg>
