<svg xmlns="http://www.w3.org/2000/svg" width="1336.7" height="551.7" version="1.0">
  <path fill="#f7b911" d="M340.2 245.5a97.4 97.4 0 0 0-16.1-24.4c-3.3-3.1-6.8-6-10.3-9-1.7-1.5-2-3-.4-4.4A79.6 79.6 0 0 0 334 181a92 92 0 0 0 7.3-27 67.9 67.9 0 0 0 0-15.3q-1.6-17.3-3.6-23-1.3-5.2-2.6-9.1c-11-28.2-36.3-47.2-52.7-57a138.3 138.3 0 0 0-15.5-6.2 163.3 163.3 0 0 0-28-6.4 147.2 147.2 0 0 0-21.2-2H35v83.5h177.6a78.4 78.4 0 0 1 17.4 2c7.6 1.6 14.1 4.8 17.7 12.2a36.6 36.6 0 0 1 2.2 11.5v8.4a19.7 19.7 0 0 1-5.6 10.6 34 34 0 0 1-21.2 7.5c-13.6 1-27.3.2-41 .4H35V398h83.5c2.6 0 3-1 3-3.3V259.3c0-7.3 0-7.3 7.2-7.3h89.9a57.4 57.4 0 0 1 28.6 6.2.8.8 0 0 0 .5 0l2.9 2.7a29 29 0 0 1 7.6 31.8 28.2 28.2 0 0 1-9.8 12.7 48.8 48.8 0 0 1-25.8 8.2c-11.4.2-22.8 0-34.2 0-2.9 0-3.7.9-3.7 3.6V391c0 7 0 7.3 7.1 7a403.9 403.9 0 0 0 45.5-1.3q23.6-3.3 40.2-8a11.9 11.9 0 0 0 .7-.3 121.6 121.6 0 0 0 34.4-17.9 65 65 0 0 0 16.2-16 5.1 5.1 0 0 0 1-1A88.2 88.2 0 0 0 346 321a176.8 176.8 0 0 0 4.2-21 94.7 94.7 0 0 0-10-54.4zM177.8 115Z"/>
  <path fill="#e75115" d="M378.2 366.1h55.1V151h-55.1Zm27.4-238.5a31.5 31.5 0 0 0 31.3-32A31.9 31.9 0 0 0 405.6 63a32.2 32.2 0 0 0-31.7 32.5c0 17.8 14.2 32 31.7 32zM576.3 147c-65 0-117.7 49.6-117.7 111.3 0 61.5 52.7 111 117.7 111S694 319.8 694 258.3c0-61.7-52.7-111.3-117.7-111.3Zm0 172.8a62.7 62.7 0 0 1-63.4-61.5c0-34 28.6-61.7 63.4-61.7a62.5 62.5 0 0 1 63.4 61.7 62.4 62.4 0 0 1-63.4 61.5zM969.8 147a99 99 0 0 0-67.3 27.3c-14.7-19-38-27.3-71.3-27.3a96 96 0 0 0-56 17.4V151h-55.4v215.2h55.4V213.6a66 66 0 0 1 46.4-17c28.5 0 43.2 16.5 43.2 49.4v120.1H920V247c0-19.4-.4-27.4-2.4-33.3a59.4 59.4 0 0 1 42.9-17c30 0 46.7 16.2 46.7 49.4v120.1h55v-120c0-69.7-28.9-99.1-92.3-99.1zm331.5 127.2c0-3.6.4-7.9.4-12.3 0-67-38.5-115-104.6-115-65 0-110.2 49.7-110.2 111.4 0 61.5 45.2 111 110.2 111 42 0 77.2-17.4 97-44.4l-35.2-29.3a69 69 0 0 1-55.5 26.6c-32.9 0-55.5-19.9-61.4-48zM1197 191c36.8 0 49.9 23.3 51.9 48h-106.6c5.1-26.6 25.7-48 54.7-48z"/>
  <path fill="#f8ba11" d="M154.3 466.9v-10.7H197v10.7h-15.7v48.6h-11.2v-48.6zm51.4 25.6v-13.3c0-7.7 2-13.6 5.8-17.8 3.9-4.3 9.2-6.4 16-6.4 6.9 0 12.2 2.1 16.1 6.4a25.6 25.6 0 0 1 5.8 17.8v13.3c0 7.9-2 13.9-5.8 18a21 21 0 0 1-16 6.2c-6.9 0-12.2-2-16-6.2-4-4.1-5.9-10.1-5.9-18zm21.8 14c2 0 3.7-.3 5.1-1a8.6 8.6 0 0 0 3.3-2.7 10 10 0 0 0 1.8-4.2c.3-1.7.5-3.5.5-5.5v-14.5c0-2-.2-3.7-.6-5.3-.3-1.6-1-3-1.8-4.3-.9-1.1-2-2-3.3-2.8-1.4-.7-3-1-5-1a9.2 9.2 0 0 0-8.2 3.9c-.8 1.2-1.4 2.6-1.9 4.2a29 29 0 0 0-.5 5.3V493c0 2 .1 3.8.5 5.5.3 1.6.9 3 1.7 4.2a9.6 9.6 0 0 0 8.4 3.7zm30-14v-13.3c0-7.7 2-13.6 5.8-17.8 3.9-4.3 9.2-6.4 16.1-6.4 6.8 0 12.2 2.1 16 6.4a25.6 25.6 0 0 1 5.8 17.8v13.3c0 7.9-1.9 13.9-5.8 18a20.8 20.8 0 0 1-16 6.2 21 21 0 0 1-16-6.2c-4-4.1-5.9-10.1-5.9-18zm22 14c2 0 3.6-.3 5-1a8.8 8.8 0 0 0 3.2-2.7c.9-1.2 1.5-2.6 1.9-4.2.3-1.7.5-3.5.5-5.5v-14.5c0-2-.2-3.7-.7-5.3-.3-1.6-1-3-1.8-4.3-.8-1.1-2-2-3.3-2.8-1.4-.7-3-1-4.9-1-2 0-3.6.3-5 1a9.2 9.2 0 0 0-3.2 2.8c-.9 1.3-1.5 2.7-1.9 4.3a22 22 0 0 0-.6 5.3V493c0 2 .2 3.8.5 5.5.4 1.6 1 3 1.8 4.2a9.6 9.6 0 0 0 8.4 3.7zm32.7 9v-59.3h11.3v48.6h26.9v10.7zm71-9c2.2 0 4-.3 5.3-1a8 8 0 0 0 3.2-2.6 9.9 9.9 0 0 0 1.6-3.8c.3-1.4.5-3 .5-4.4V493h11.1v1.6c0 7-1.8 12.5-5.6 16.3-3.6 3.8-9 5.7-16 5.7-6.8 0-12.2-2-16.1-6.2-4-4.1-6-10.1-6-18v-13.3c0-3.8.5-7.1 1.5-10.2a20 20 0 0 1 11.4-12.3c2.7-1.1 5.8-1.7 9.1-1.7 3.5 0 6.6.5 9.4 1.6a17.6 17.6 0 0 1 11 11.3c.8 2.7 1.3 5.7 1.3 9.1v1.6h-11.1V477a15.2 15.2 0 0 0-2.3-8 8 8 0 0 0-3.2-2.8c-1.3-.7-3-1-5-1s-3.6.3-5 1a10.5 10.5 0 0 0-5.3 7.2c-.4 1.6-.6 3.2-.6 5v15c0 1.8.2 3.6.6 5.2.4 1.6 1 3 1.8 4.2a9 9 0 0 0 3.4 2.7c1.4.7 3 1 5 1zm31 9v-59.3h11.1v24.2h19.1v-24.2h11.3v59.3h-11.3V491h-19v24.4zm85.5 0-2.9-12.7h-20.2l-2.8 12.7h-11.7l14.1-59.3h21l14.2 59.3zM486 461.8l-7 30.3h15.4l-6.9-30.3zm32.8 5v-10.6h39.6v10.7h-14.2v38h14.2v10.6h-39.6v-10.7H533v-38zm72.8-10.6 6.9 53.7h1.5v-53.7h11.2v59.3h-21.9l-7-53.7h-1.5v53.7h-11.1v-59.3zm80.6 36.3v-13.3c0-7.7 2-13.6 5.8-17.8 4-4.3 9.3-6.4 16.1-6.4 6.8 0 12.2 2.1 16 6.4a25.6 25.6 0 0 1 5.8 17.8v13.3c0 7.9-1.9 13.9-5.8 18a20.8 20.8 0 0 1-16 6.2 21 21 0 0 1-16-6.2c-4-4.1-5.9-10.1-5.9-18zm22 14c2 0 3.6-.3 5-1a8.6 8.6 0 0 0 3.3-2.7 10 10 0 0 0 1.8-4.2c.3-1.7.5-3.5.5-5.5v-14.5c0-2-.2-3.7-.6-5.3-.4-1.6-1-3-1.9-4.3-.8-1.1-2-2-3.3-2.8-1.3-.7-3-1-4.9-1-2 0-3.6.3-5 1a9.2 9.2 0 0 0-3.2 2.8c-.9 1.3-1.5 2.7-1.9 4.3a29 29 0 0 0-.5 5.3V493c0 2 .1 3.8.5 5.5.3 1.6.9 3 1.7 4.2a9.6 9.6 0 0 0 8.4 3.7zm33.3 9v-59.3h38v10.7h-26.8v13.5h26.2v10.7h-26.2v24.4zm100.8-48.6v-10.7H871v10.7h-15.7v48.6H844v-48.6zm52.4 48.6v-59.3h11.2v24.2H911v-24.2h11.2v59.3H911V491h-19v24.4zm53.6 0v-59.3h37.4v10.7h-26.2v13.5h25.3v10.7h-25.3v13.7h27.3v10.7zm148-59.3-2.1 59.3h-19.5l-2.7-45v-8.2h-2v8.2l-2.7 45h-19.5l-2-59.3h10.1l1.3 45v7.7h2.1v-7.7l2.7-45h18l2.7 45v7.7h2v-7.7l1.3-45zm7.5 59.3v-59.3h37.5v10.7h-26.2v13.5h25.2v10.7H1101v13.7h27.2v10.7zm48.8 0v-10.7h5.7v-38h-5.7v-10.6h26c2.9 0 5.4.4 7.5 1.2 2.2.8 4 1.9 5.5 3.2a13 13 0 0 1 3.4 4.8c.8 2 1.2 4 1.2 6.2v1c0 3.4-1 6.1-2.9 8.2a15 15 0 0 1-7 4.2v1.6c2.8.7 5.2 2.1 7 4.2 2 2 2.9 4.8 2.9 8.2v1c0 2.2-.4 4.2-1.2 6.1-.7 2-1.8 3.6-3.4 5a16.7 16.7 0 0 1-5.5 3.2c-2.1.8-4.6 1.2-7.4 1.2zm16.8-24.4v13.7h8.1a10 10 0 0 0 5.8-1.5c1.5-1 2.2-2.7 2.2-5.1v-.5c0-2.3-.7-4-2.2-5a9.8 9.8 0 0 0-5.8-1.6zm0-24.2v13.5h8.1a10 10 0 0 0 5.8-1.5c1.5-1 2.2-2.6 2.2-5v-.5c0-2.4-.7-4-2.2-5a10 10 0 0 0-5.8-1.5z"/>
</svg>
