<?xml version="1.0" standalone="yes"?>
<svg xmlns="http://www.w3.org/2000/svg" width="1000" height="1000">
<path style="fill:#e75117; stroke:none;" d="M0 0L0 1000L1000 1000L1000 0L0 0z"/>
<path style="fill:#bd9329; stroke:none;" d="M247 140L247 141L251 141L247 140z"/>
<path style="fill:#f9bb11; stroke:none;" d="M251 140.424C200.763 147.102 159.561 177.194 144.721 227C138.924 246.454 140 266.944 140 287L140 370L140 654C140 705.455 130.611 765.677 162.428 810C201.73 864.749 263.221 860 323 860L611 860L702 860C722.311 860 742.9 861.103 763 857.714C809.633 849.852 848.835 810.159 857.54 764C861.066 745.305 860 725.934 860 707L860 622L860 350C860 296.947 870.314 233.073 836.101 188C795.887 135.021 735.396 140 676 140L392 140L299 140C283.304 140 266.562 138.356 251 140.424z"/>
<path style="fill:#bd9329; stroke:none;" d="M747 140L747 141L753 141L747 140M241.667 141.333L242.333 141.667L241.667 141.333M757.667 141.333L758.333 141.667L757.667 141.333M235 142L236 143L235 142M764 142L765 143L764 142M231 143L232 144L231 143M768 143L769 144L768 143M227 144L228 145L227 144M772 144L773 145L772 144M224 145L225 146L224 145M775 145L776 146L775 145M221 146L222 147L221 146M778 146L779 147L778 146M781 147L782 148L781 147M216 148L217 149L216 148M783 148L784 149L783 148M213 149L214 150L213 149M786 149L787 150L786 149M211 150L212 151L211 150M788 150L789 151L788 150M209 151L210 152L209 151M790 151L791 152L790 151M207 152L208 153L207 152M792 152L793 153L792 152M201 155L202 156L201 155M798 155L799 156L798 155M199 156L200 157L199 156M800 156L801 157L800 156M196 158L197 159L196 158M803 158L804 159L803 158M194 159L195 160L194 159M805 159L806 160L805 159M191 161L192 162L191 161M809 162L810 163L809 162M187 164L188 165L187 164M812 164L813 165L812 164M182 168L183 169L182 168M817 168L818 169L817 168M181 169L182 170L181 169M818 169L819 170L818 169M180 170L181 171L180 170M819 170L820 171L819 170M170 180L171 181L170 180M829 180L830 181L829 180M169 181L170 182L169 181M830 181L831 182L830 181M168 182L169 183L168 182M831 182L832 183L831 182M164 187L165 188L164 187M835 187L836 188L835 187M161 191L162 192L161 191M838 191L839 192L838 191M159 194L160 195L159 194M840 194L841 195L840 194M156 199L157 200L156 199M843 199L844 200L843 199M154 202L155 203L154 202M845 202L846 203L845 202M152 206L153 207L152 206M849 211L850 212L849 211M149 213L150 214L149 213M850 213L851 214L850 213M148 215L149 216L148 215M851 215L852 216L851 215M147 218L148 219L147 218M852 218L853 219L852 218M146 221L147 222L146 221M853 221L854 222L853 221M145 224L146 225L145 224M854 224L855 225L854 224M144 227L145 228L144 227M855 227L856 228L855 227M143 231L144 232L143 231M856 231L857 232L856 231M142 235L143 236L142 235M857 235L858 236L857 235M141.333 241.667L141.667 242.333L141.333 241.667M858.333 241.667L858.667 242.333L858.333 241.667M140 248L140 252L141 252L140 248M859 248L859 253L860 253L859 248M319 389L320 389L320 293L534 293C521.355 287.694 498.776 292 485 292L370 292L333 292C329.685 292 322.368 290.649 320.028 293.603C316.315 298.291 319 313.154 319 319L319 389z"/>
<path style="fill:#31271c; stroke:none;" d="M320 293L320 388L519 388C544.311 388 572.75 397.285 564.442 429C558.193 452.854 523.193 448 505 448L320 448L320 707L394 707C398.693 707 415.016 709.519 417.397 704.682C421.51 696.323 418 678.323 418 669L418 579C418 570.075 413.155 541.442 425.001 540.109C448.694 537.443 474.144 540 498 540C515.632 540 534.984 537.812 552 543.358C573.012 550.207 585.06 575.065 570.471 594C557.883 610.338 537.793 611 519 611C513.62 611 495.552 608.154 492.028 612.603C489.954 615.221 491 620.878 491 624L491 654L491 691C491 694.731 489.577 702.302 492.028 705.397C495.552 709.846 513.62 707 519 707C547.363 707 576.112 703.913 603 694.302C662.645 672.982 696.631 603.998 673.075 544C667.682 530.266 661.566 518.197 651.711 507.004C648.417 503.263 638.056 497.403 638.056 492C638.056 488.524 642.781 485.292 644.911 483C650.688 476.782 655.921 469.6 659.73 462C670.832 439.851 671.346 414.833 666.551 391C656.863 342.848 616.38 310.89 571 298.425C540.47 290.039 507.316 293 476 293L320 293z"/>
<path style="fill:#7e5c0c; stroke:none;" d="M539 293L539 294L543 294L539 293z"/>
<path style="fill:#bd9329; stroke:none;" d="M543 293L543 294L547 294L543 293z"/>
<path style="fill:#7e5c0c; stroke:none;" d="M549 294L549 295L553 295L549 294z"/>
<path style="fill:#bd9329; stroke:none;" d="M553.667 294.333L554.333 294.667L553.667 294.333z"/>
<path style="fill:#7e5c0c; stroke:none;" d="M556.667 295.333L557.333 295.667L556.667 295.333z"/>
<path style="fill:#bd9329; stroke:none;" d="M558.667 295.333L559.333 295.667L558.667 295.333z"/>
<path style="fill:#7e5c0c; stroke:none;" d="M562.667 296.333L563.333 296.667L562.667 296.333z"/>
<path style="fill:#bd9329; stroke:none;" d="M564.667 296.333L565.333 296.667L564.667 296.333z"/>
<path style="fill:#7e5c0c; stroke:none;" d="M567 297L568 298L567 297z"/>
<path style="fill:#bd9329; stroke:none;" d="M568.667 297.333L569.333 297.667L568.667 297.333z"/>
<path style="fill:#7e5c0c; stroke:none;" d="M571 298L572 299L571 298z"/>
<path style="fill:#bd9329; stroke:none;" d="M572.667 298.333L573.333 298.667L572.667 298.333z"/>
<path style="fill:#7e5c0c; stroke:none;" d="M574.667 299.333L575.333 299.667L574.667 299.333z"/>
<path style="fill:#bd9329; stroke:none;" d="M576 299L577 300L576 299z"/>
<path style="fill:#7e5c0c; stroke:none;" d="M578.667 300.333L579.333 300.667L578.667 300.333z"/>
<path style="fill:#bd9329; stroke:none;" d="M580 300L581 301L580 300z"/>
<path style="fill:#7e5c0c; stroke:none;" d="M582.667 301.333L583.333 301.667L582.667 301.333z"/>
<path style="fill:#bd9329; stroke:none;" d="M584 301L585 302L584 301z"/>
<path style="fill:#7e5c0c; stroke:none;" d="M586 302L587 303L586 302z"/>
<path style="fill:#bd9329; stroke:none;" d="M587 302L588 303L587 302z"/>
<path style="fill:#7e5c0c; stroke:none;" d="M588 303L589 304L588 303z"/>
<path style="fill:#bd9329; stroke:none;" d="M589 303L590 304L589 303z"/>
<path style="fill:#7e5c0c; stroke:none;" d="M591 304L592 305L591 304z"/>
<path style="fill:#bd9329; stroke:none;" d="M592 304L593 305L592 304M594 305L595 306L594 305z"/>
<path style="fill:#7e5c0c; stroke:none;" d="M596 306L597 307L596 306z"/>
<path style="fill:#bd9329; stroke:none;" d="M597 306L598 307L597 306z"/>
<path style="fill:#7e5c0c; stroke:none;" d="M598 307L599 308L598 307z"/>
<path style="fill:#bd9329; stroke:none;" d="M599 307L600 308L599 307z"/>
<path style="fill:#7e5c0c; stroke:none;" d="M600 308L601 309L600 308z"/>
<path style="fill:#bd9329; stroke:none;" d="M601 308L602 309L601 308z"/>
<path style="fill:#7e5c0c; stroke:none;" d="M602 309L603 310L602 309z"/>
<path style="fill:#bd9329; stroke:none;" d="M603 309L604 310L603 309z"/>
<path style="fill:#7e5c0c; stroke:none;" d="M604 310L605 311L604 310z"/>
<path style="fill:#bd9329; stroke:none;" d="M606 311L607 312L606 311z"/>
<path style="fill:#7e5c0c; stroke:none;" d="M607 312L608 313L607 312z"/>
<path style="fill:#bd9329; stroke:none;" d="M609 313L610 314L609 313z"/>
<path style="fill:#7e5c0c; stroke:none;" d="M610 314L611 315L610 314z"/>
<path style="fill:#bd9329; stroke:none;" d="M611 314L612 315L611 314z"/>
<path style="fill:#7e5c0c; stroke:none;" d="M612 315L613 316L612 315M613 316L614 317L613 316z"/>
<path style="fill:#bd9329; stroke:none;" d="M614 316L615 317L614 316M615 317L616 318L615 317z"/>
<path style="fill:#7e5c0c; stroke:none;" d="M616 318L617 319L616 318z"/>
<path style="fill:#bd9329; stroke:none;" d="M618 319L619 320L618 319M619 320L620 321L619 320z"/>
<path style="fill:#7e5c0c; stroke:none;" d="M620 321L621 322L620 321M621 322L622 323L621 322z"/>
<path style="fill:#bd9329; stroke:none;" d="M622 322L623 323L622 322M623 323L624 324L623 323M624 324L625 325L624 324z"/>
<path style="fill:#7e5c0c; stroke:none;" d="M625 325L626 326L625 325M626 326L627 327L626 326M627 327L628 328L627 327z"/>
<path style="fill:#bd9329; stroke:none;" d="M629 328L630 329L629 328M630 329L631 330L630 329M631 330L632 331L631 330M632 331L633 332L632 331z"/>
<path style="fill:#7e5c0c; stroke:none;" d="M633 332L634 333L633 332M634 333L635 334L634 333M635 334L636 335L635 334M636 335L637 336L636 335M637 336L638 337L637 336M638 337L639 338L638 337z"/>
<path style="fill:#bd9329; stroke:none;" d="M639 338L640 339L639 338M640 339L641 340L640 339M641 340L642 341L641 340M642 341L643 342L642 341z"/>
<path style="fill:#7e5c0c; stroke:none;" d="M643 343L644 344L643 343M644 344L645 345L644 344z"/>
<path style="fill:#bd9329; stroke:none;" d="M645 345L646 346L645 345M646 346L647 347L646 346z"/>
<path style="fill:#7e5c0c; stroke:none;" d="M647 348L648 349L647 348M648 349L649 350L648 349z"/>
<path style="fill:#bd9329; stroke:none;" d="M649 350L650 351L649 350M650 351L651 352L650 351z"/>
<path style="fill:#7e5c0c; stroke:none;" d="M650 352L651 353L650 352z"/>
<path style="fill:#bd9329; stroke:none;" d="M651 353L652 354L651 353M652 354L653 355L652 354z"/>
<path style="fill:#7e5c0c; stroke:none;" d="M652 355L653 356L652 355z"/>
<path style="fill:#bd9329; stroke:none;" d="M653 356L654 357L653 356z"/>
<path style="fill:#7e5c0c; stroke:none;" d="M654 358L655 359L654 358z"/>
<path style="fill:#bd9329; stroke:none;" d="M655 359L656 360L655 359z"/>
<path style="fill:#7e5c0c; stroke:none;" d="M655 360L656 361L655 360z"/>
<path style="fill:#bd9329; stroke:none;" d="M656 361L657 362L656 361M657 363L658 364L657 363M658 365L659 366L658 365z"/>
<path style="fill:#7e5c0c; stroke:none;" d="M659 367L660 368L659 367z"/>
<path style="fill:#bd9329; stroke:none;" d="M660 369L661 370L660 369M661 371L662 372L661 371z"/>
<path style="fill:#7e5c0c; stroke:none;" d="M661 372L662 373L661 372z"/>
<path style="fill:#bd9329; stroke:none;" d="M662 373L663 374L662 373z"/>
<path style="fill:#7e5c0c; stroke:none;" d="M662.333 374.667L662.667 375.333L662.333 374.667z"/>
<path style="fill:#bd9329; stroke:none;" d="M663.333 377.667L663.667 378.333L663.333 377.667z"/>
<path style="fill:#7e5c0c; stroke:none;" d="M663 379L664 380L663 379z"/>
<path style="fill:#bd9329; stroke:none;" d="M664 381L665 382L664 381z"/>
<path style="fill:#7e5c0c; stroke:none;" d="M664 382L665 383L664 382z"/>
<path style="fill:#bd9329; stroke:none;" d="M665 384L666 385L665 384z"/>
<path style="fill:#7e5c0c; stroke:none;" d="M665.333 385.667L665.667 386.333L665.333 385.667M320 388L320 389L418 389L388 388L320 388z"/>
<path style="fill:#bd9329; stroke:none;" d="M421 388L421 389L528 389L495 388L421 388z"/>
<path style="fill:#7e5c0c; stroke:none;" d="M528 388L528 389L534 389L528 388z"/>
<path style="fill:#bd9329; stroke:none;" d="M666 388L667 389L666 388M536.667 389.333L537.333 389.667L536.667 389.333z"/>
<path style="fill:#7e5c0c; stroke:none;" d="M538 389L538 390L541 390L538 389M666.333 389.667L666.667 390.333L666.333 389.667z"/>
<path style="fill:#bd9329; stroke:none;" d="M543 390L544 391L543 390z"/>
<path style="fill:#7e5c0c; stroke:none;" d="M544.667 390.333L545.333 390.667L544.667 390.333z"/>
<path style="fill:#bd9329; stroke:none;" d="M547 391L548 392L547 391z"/>
<path style="fill:#7e5c0c; stroke:none;" d="M548 391L549 392L548 391z"/>
<path style="fill:#bd9329; stroke:none;" d="M549 392L550 393L549 392z"/>
<path style="fill:#7e5c0c; stroke:none;" d="M550 392L551 393L550 392M552 393L553 394L552 393z"/>
<path style="fill:#bd9329; stroke:none;" d="M667.333 393.667L667.667 394.333L667.333 393.667M553 394L554 395L553 394z"/>
<path style="fill:#7e5c0c; stroke:none;" d="M554 394L555 395L554 394M555 395L556 396L555 395M667.333 395.667L667.667 396.333L667.333 395.667z"/>
<path style="fill:#bd9329; stroke:none;" d="M556 396L557 397L556 396M557 397L558 398L557 397M558 398L559 399L558 398M559 399L560 400L559 399z"/>
<path style="fill:#7e5c0c; stroke:none;" d="M560 400L561 401L560 400z"/>
<path style="fill:#bd9329; stroke:none;" d="M668 400L668 404L669 404L668 400z"/>
<path style="fill:#7e5c0c; stroke:none;" d="M561 401L562 402L561 401z"/>
<path style="fill:#bd9329; stroke:none;" d="M561 402L562 403L561 402z"/>
<path style="fill:#7e5c0c; stroke:none;" d="M562 403L563 404L562 403z"/>
<path style="fill:#bd9329; stroke:none;" d="M562 404L563 405L562 404z"/>
<path style="fill:#7e5c0c; stroke:none;" d="M668 404L668 407L669 407L668 404M563 406L564 407L563 406z"/>
<path style="fill:#bd9329; stroke:none;" d="M563 407L564 408L563 407M669.333 408.667L669.667 409.333L669.333 408.667z"/>
<path style="fill:#7e5c0c; stroke:none;" d="M564 409L564 412L565 412L564 409M669 410L669 415L670 415L669 410z"/>
<path style="fill:#bd9329; stroke:none;" d="M564 412L564 415L565 415L564 412z"/>
<path style="fill:#7e5c0c; stroke:none;" d="M565 417L566 418L565 417M669 425L669 429L670 429L669 425z"/>
<path style="fill:#bd9329; stroke:none;" d="M564 428L565 429L564 428z"/>
<path style="fill:#7e5c0c; stroke:none;" d="M564 429L565 430L564 429z"/>
<path style="fill:#bd9329; stroke:none;" d="M669.333 429.667L669.667 430.333L669.333 429.667M563 431L564 432L563 431z"/>
<path style="fill:#7e5c0c; stroke:none;" d="M563 432L564 433L563 432z"/>
<path style="fill:#bd9329; stroke:none;" d="M562 433L563 434L562 433z"/>
<path style="fill:#7e5c0c; stroke:none;" d="M668.333 433.667L668.667 434.333L668.333 433.667M561 435L562 436L561 435z"/>
<path style="fill:#bd9329; stroke:none;" d="M668.333 435.667L668.667 436.333L668.333 435.667M560 436L561 437L560 436M559 437L560 438L559 437z"/>
<path style="fill:#7e5c0c; stroke:none;" d="M667.333 438.667L667.667 439.333L667.333 438.667z"/>
<path style="fill:#bd9329; stroke:none;" d="M557 439L558 440L557 439z"/>
<path style="fill:#7e5c0c; stroke:none;" d="M558 439L559 440L558 439M556 440L557 441L556 440z"/>
<path style="fill:#bd9329; stroke:none;" d="M667.333 440.667L667.667 441.333L667.333 440.667M554 441L555 442L554 441z"/>
<path style="fill:#7e5c0c; stroke:none;" d="M555 441L556 442L555 441M553 442L554 443L553 442z"/>
<path style="fill:#bd9329; stroke:none;" d="M551 443L552 444L551 443z"/>
<path style="fill:#7e5c0c; stroke:none;" d="M666 443L667 444L666 443z"/>
<path style="fill:#bd9329; stroke:none;" d="M548 444L549 445L548 444z"/>
<path style="fill:#7e5c0c; stroke:none;" d="M549 444L550 445L549 444z"/>
<path style="fill:#bd9329; stroke:none;" d="M666 444L667 445L666 444M545 445L546 446L545 445z"/>
<path style="fill:#7e5c0c; stroke:none;" d="M546.667 445.333L547.333 445.667L546.667 445.333z"/>
<path style="fill:#bd9329; stroke:none;" d="M541.667 446.333L542.333 446.667L541.667 446.333z"/>
<path style="fill:#7e5c0c; stroke:none;" d="M543 446L544 447L543 446M665.333 446.667L665.667 447.333L665.333 446.667z"/>
<path style="fill:#bd9329; stroke:none;" d="M527 447L527 448L533 448L527 447z"/>
<path style="fill:#7e5c0c; stroke:none;" d="M533 447L533 448L539 448L533 447z"/>
<path style="fill:#bd9329; stroke:none;" d="M319 448L319 707L320 707L320 524L320 472L319 448z"/>
<path style="fill:#7e5c0c; stroke:none;" d="M483.667 448.333L484.333 448.667L483.667 448.333z"/>
<path style="fill:#bd9329; stroke:none;" d="M665 448L666 449L665 448z"/>
<path style="fill:#7e5c0c; stroke:none;" d="M664 450L665 451L664 450z"/>
<path style="fill:#bd9329; stroke:none;" d="M664 451L665 452L664 451z"/>
<path style="fill:#7e5c0c; stroke:none;" d="M663 453L664 454L663 453z"/>
<path style="fill:#bd9329; stroke:none;" d="M663 454L664 455L663 454z"/>
<path style="fill:#7e5c0c; stroke:none;" d="M662 455L663 456L662 455z"/>
<path style="fill:#bd9329; stroke:none;" d="M662 456L663 457L662 456z"/>
<path style="fill:#7e5c0c; stroke:none;" d="M661 458L662 459L661 458z"/>
<path style="fill:#bd9329; stroke:none;" d="M661 459L662 460L661 459z"/>
<path style="fill:#7e5c0c; stroke:none;" d="M660 460L661 461L660 460M659 462L660 463L659 462z"/>
<path style="fill:#bd9329; stroke:none;" d="M658 464L659 465L658 464M657 466L658 467L657 466z"/>
<path style="fill:#7e5c0c; stroke:none;" d="M656 467L657 468L656 467z"/>
<path style="fill:#bd9329; stroke:none;" d="M656 468L657 469L656 468z"/>
<path style="fill:#7e5c0c; stroke:none;" d="M655 469L656 470L655 469M654 470L655 471L654 470z"/>
<path style="fill:#bd9329; stroke:none;" d="M654 471L655 472L654 471M653 472L654 473L653 472z"/>
<path style="fill:#7e5c0c; stroke:none;" d="M652 473L653 474L652 473z"/>
<path style="fill:#bd9329; stroke:none;" d="M652 474L653 475L652 474M651 475L652 476L651 475z"/>
<path style="fill:#7e5c0c; stroke:none;" d="M650 476L651 477L650 476M649 477L650 478L649 477M648 478L649 479L648 478z"/>
<path style="fill:#bd9329; stroke:none;" d="M648 479L649 480L648 479M647 480L648 481L647 480M646 481L647 482L646 481z"/>
<path style="fill:#7e5c0c; stroke:none;" d="M645 482L646 483L645 482M644 483L645 484L644 483z"/>
<path style="fill:#bd9329; stroke:none;" d="M643 484L644 485L643 484M642 485L643 486L642 485M641 486L642 487L641 486M640 487L641 488L640 487M639 488L640 489L639 488M638 489L639 490L638 489M637 490L638 491L637 490z"/>
<path style="fill:#7e5c0c; stroke:none;" d="M636.333 491.667L636.667 492.333L636.333 491.667z"/>
<path style="fill:#bd9329; stroke:none;" d="M637 493L638 494L637 493M638 494L639 495L638 494M639 495L640 496L639 495M640 496L641 497L640 496z"/>
<path style="fill:#7e5c0c; stroke:none;" d="M641 497L642 498L641 497M642 498L643 499L642 498M643 499L644 500L643 499M644 500L645 501L644 500z"/>
<path style="fill:#bd9329; stroke:none;" d="M645 500L646 501L645 500M646 501L647 502L646 501M647 502L648 503L647 502M648 503L649 504L648 503M649 504L650 505L649 504M650 505L651 506L650 505M651 506L652 507L651 506M652 507L653 508L652 507z"/>
<path style="fill:#7e5c0c; stroke:none;" d="M653 509L654 510L653 509M654 510L655 511L654 510z"/>
<path style="fill:#bd9329; stroke:none;" d="M655 511L656 512L655 511M656 512L657 513L656 512M657 513L658 514L657 513z"/>
<path style="fill:#7e5c0c; stroke:none;" d="M657 514L658 515L657 514M658 515L659 516L658 515z"/>
<path style="fill:#bd9329; stroke:none;" d="M659 516L660 517L659 516M660 517L661 518L660 517z"/>
<path style="fill:#7e5c0c; stroke:none;" d="M660 518L661 519L660 518M661 519L662 520L661 519z"/>
<path style="fill:#bd9329; stroke:none;" d="M662 520L663 521L662 520z"/>
<path style="fill:#7e5c0c; stroke:none;" d="M662 521L663 522L662 521z"/>
<path style="fill:#bd9329; stroke:none;" d="M663 522L664 523L663 522M664 523L665 524L664 523z"/>
<path style="fill:#7e5c0c; stroke:none;" d="M664 524L665 525L664 524z"/>
<path style="fill:#bd9329; stroke:none;" d="M665 525L666 526L665 525z"/>
<path style="fill:#7e5c0c; stroke:none;" d="M666 527L667 528L666 527z"/>
<path style="fill:#bd9329; stroke:none;" d="M667 528L668 529L667 528z"/>
<path style="fill:#7e5c0c; stroke:none;" d="M667 529L668 530L667 529z"/>
<path style="fill:#bd9329; stroke:none;" d="M668 530L668 533L669 533L668 530z"/>
<path style="fill:#7e5c0c; stroke:none;" d="M668 533L669 534L668 533M669 535L670 536L669 535z"/>
<path style="fill:#bd9329; stroke:none;" d="M670 537L671 538L670 537z"/>
<path style="fill:#7e5c0c; stroke:none;" d="M670 538L671 539L670 538z"/>
<path style="fill:#bd9329; stroke:none;" d="M671 539L672 540L671 539z"/>
<path style="fill:#7e5c0c; stroke:none;" d="M421 540L421 541L499 541L475 540L421 540z"/>
<path style="fill:#bd9329; stroke:none;" d="M499 540L499 541L517 541L499 540z"/>
<path style="fill:#7e5c0c; stroke:none;" d="M517 540L517 541L538 541L517 540M671 540L672 541L671 540z"/>
<path style="fill:#bd9329; stroke:none;" d="M419 541L420 542L419 541M541.667 541.333L542.333 541.667L541.667 541.333z"/>
<path style="fill:#7e5c0c; stroke:none;" d="M543.667 541.333L544.333 541.667L543.667 541.333z"/>
<path style="fill:#bd9329; stroke:none;" d="M672 541L673 542L672 541z"/>
<path style="fill:#7e5c0c; stroke:none;" d="M418.333 542.667L418.667 543.333L418.333 542.667z"/>
<path style="fill:#bd9329; stroke:none;" d="M547 542L548 543L547 542z"/>
<path style="fill:#7e5c0c; stroke:none;" d="M548.667 542.333L549.333 542.667L548.667 542.333M672 542L673 543L672 542z"/>
<path style="fill:#bd9329; stroke:none;" d="M550 543L551 544L550 543z"/>
<path style="fill:#7e5c0c; stroke:none;" d="M551.667 543.333L552.333 543.667L551.667 543.333z"/>
<path style="fill:#bd9329; stroke:none;" d="M673 543L674 544L673 543M418 544L418 705L419 705L419 592C419 578.485 423.206 556.407 418 544M554 544L555 545L554 544z"/>
<path style="fill:#7e5c0c; stroke:none;" d="M555 544L556 545L555 544M673 544L674 545L673 544z"/>
<path style="fill:#bd9329; stroke:none;" d="M557 545L558 546L557 545M559 546L560 547L559 546z"/>
<path style="fill:#7e5c0c; stroke:none;" d="M560 546L561 547L560 546z"/>
<path style="fill:#bd9329; stroke:none;" d="M674 546L675 547L674 546M561 547L562 548L561 547z"/>
<path style="fill:#7e5c0c; stroke:none;" d="M562 547L563 548L562 547M674.333 547.667L674.667 548.333L674.333 547.667z"/>
<path style="fill:#bd9329; stroke:none;" d="M563 548L564 549L563 548M564 549L565 550L564 549M675 549L676 550L675 549M565 550L566 551L565 550z"/>
<path style="fill:#7e5c0c; stroke:none;" d="M675.333 550.667L675.667 551.333L675.333 550.667z"/>
<path style="fill:#bd9329; stroke:none;" d="M566 551L567 552L566 551M567 552L568 553L567 552M568 553L569 554L568 553M676 553L677 554L676 553z"/>
<path style="fill:#7e5c0c; stroke:none;" d="M569 554L570 555L569 554M676 554L677 555L676 554z"/>
<path style="fill:#bd9329; stroke:none;" d="M570 556L571 557L570 556M677 556L678 557L677 556M571 557L572 558L571 557z"/>
<path style="fill:#7e5c0c; stroke:none;" d="M677.333 557.667L677.667 558.333L677.333 557.667M572 558L573 559L572 558z"/>
<path style="fill:#bd9329; stroke:none;" d="M572 559L573 560L572 559z"/>
<path style="fill:#7e5c0c; stroke:none;" d="M573 560L574 561L573 560z"/>
<path style="fill:#bd9329; stroke:none;" d="M678.333 560.667L678.667 561.333L678.333 560.667M573 561L574 562L573 561z"/>
<path style="fill:#7e5c0c; stroke:none;" d="M574 562L575 563L574 562M678.333 562.667L678.667 563.333L678.333 562.667z"/>
<path style="fill:#bd9329; stroke:none;" d="M574 563L575 564L574 563z"/>
<path style="fill:#7e5c0c; stroke:none;" d="M575 565L576 566L575 565z"/>
<path style="fill:#bd9329; stroke:none;" d="M575.333 566.667L575.667 567.333L575.333 566.667M679.333 566.667L679.667 567.333L679.333 566.667z"/>
<path style="fill:#7e5c0c; stroke:none;" d="M679.333 568.667L679.667 569.333L679.333 568.667M576.333 569.667L576.667 570.333L576.333 569.667z"/>
<path style="fill:#bd9329; stroke:none;" d="M576 571L576 578L577 578L576 571M680 575L680 591L681 591L680 575z"/>
<path style="fill:#7e5c0c; stroke:none;" d="M576 578L576 581L577 581L576 578z"/>
<path style="fill:#bd9329; stroke:none;" d="M575.333 582.667L575.667 583.333L575.333 582.667z"/>
<path style="fill:#7e5c0c; stroke:none;" d="M575 584L576 585L575 584z"/>
<path style="fill:#bd9329; stroke:none;" d="M574 586L575 587L574 586z"/>
<path style="fill:#7e5c0c; stroke:none;" d="M574 587L575 588L574 587M573 589L574 590L573 589M572 591L573 592L572 591z"/>
<path style="fill:#bd9329; stroke:none;" d="M571 592L572 593L571 592z"/>
<path style="fill:#7e5c0c; stroke:none;" d="M570 594L571 595L570 594z"/>
<path style="fill:#bd9329; stroke:none;" d="M569 595L570 596L569 595z"/>
<path style="fill:#7e5c0c; stroke:none;" d="M679 595L679 598L680 598L679 595z"/>
<path style="fill:#bd9329; stroke:none;" d="M568 596L569 597L568 596M567 597L568 598L567 597M566 598L567 599L566 598M679.333 598.667L679.667 599.333L679.333 598.667M565 599L566 600L565 599z"/>
<path style="fill:#7e5c0c; stroke:none;" d="M564 600L565 601L564 600M563 601L564 602L563 601z"/>
<path style="fill:#bd9329; stroke:none;" d="M561 602L562 603L561 602z"/>
<path style="fill:#7e5c0c; stroke:none;" d="M678.333 602.667L678.667 603.333L678.333 602.667z"/>
<path style="fill:#bd9329; stroke:none;" d="M559 603L560 604L559 603z"/>
<path style="fill:#7e5c0c; stroke:none;" d="M560 603L561 604L560 603z"/>
<path style="fill:#bd9329; stroke:none;" d="M557 604L558 605L557 604z"/>
<path style="fill:#7e5c0c; stroke:none;" d="M558 604L559 605L558 604z"/>
<path style="fill:#bd9329; stroke:none;" d="M678 604L678 607L679 607L678 604M555 605L556 606L555 605z"/>
<path style="fill:#7e5c0c; stroke:none;" d="M556 605L557 606L556 605z"/>
<path style="fill:#bd9329; stroke:none;" d="M553 606L554 607L553 606M550 607L551 608L550 607z"/>
<path style="fill:#7e5c0c; stroke:none;" d="M551 607L552 608L551 607z"/>
<path style="fill:#bd9329; stroke:none;" d="M546.667 608.333L547.333 608.667L546.667 608.333z"/>
<path style="fill:#7e5c0c; stroke:none;" d="M548 608L549 609L548 608M677.333 608.667L677.667 609.333L677.333 608.667z"/>
<path style="fill:#bd9329; stroke:none;" d="M542.667 609.333L543.333 609.667L542.667 609.333z"/>
<path style="fill:#7e5c0c; stroke:none;" d="M544 609L545 610L544 609z"/>
<path style="fill:#bd9329; stroke:none;" d="M493 610L493 611L507 611L493 610M523 610L523 611L536 611L523 610z"/>
<path style="fill:#7e5c0c; stroke:none;" d="M536 610L536 611L540 611L536 610z"/>
<path style="fill:#bd9329; stroke:none;" d="M677 610L678 611L677 610M491 611L492 612L491 611M490 613L490 705L491 705L491 641L490 613z"/>
<path style="fill:#7e5c0c; stroke:none;" d="M676.333 613.667L676.667 614.333L676.333 613.667z"/>
<path style="fill:#bd9329; stroke:none;" d="M676 615L677 616L676 615z"/>
<path style="fill:#7e5c0c; stroke:none;" d="M675 618L676 619L675 618M674 620L675 621L674 620z"/>
<path style="fill:#bd9329; stroke:none;" d="M674 621L675 622L674 621z"/>
<path style="fill:#7e5c0c; stroke:none;" d="M673 623L674 624L673 623z"/>
<path style="fill:#bd9329; stroke:none;" d="M673 624L674 625L673 624z"/>
<path style="fill:#7e5c0c; stroke:none;" d="M672 626L673 627L672 626z"/>
<path style="fill:#bd9329; stroke:none;" d="M672 627L673 628L672 627z"/>
<path style="fill:#7e5c0c; stroke:none;" d="M671 629L672 630L671 629z"/>
<path style="fill:#bd9329; stroke:none;" d="M671 630L672 631L671 630M670 632L671 633L670 632z"/>
<path style="fill:#7e5c0c; stroke:none;" d="M669 634L670 635L669 634z"/>
<path style="fill:#bd9329; stroke:none;" d="M669 635L670 636L669 635z"/>
<path style="fill:#7e5c0c; stroke:none;" d="M668 636L669 637L668 636z"/>
<path style="fill:#bd9329; stroke:none;" d="M668 637L669 638L668 637M667 639L668 640L667 639M666 641L667 642L666 641z"/>
<path style="fill:#7e5c0c; stroke:none;" d="M665 642L666 643L665 642z"/>
<path style="fill:#bd9329; stroke:none;" d="M665 643L666 644L665 643z"/>
<path style="fill:#7e5c0c; stroke:none;" d="M664 644L665 645L664 644M663 646L664 647L663 646z"/>
<path style="fill:#bd9329; stroke:none;" d="M662 648L663 649L662 648z"/>
<path style="fill:#7e5c0c; stroke:none;" d="M661 649L662 650L661 649M660 650L661 651L660 650z"/>
<path style="fill:#bd9329; stroke:none;" d="M660 651L661 652L660 651M659 652L660 653L659 652z"/>
<path style="fill:#7e5c0c; stroke:none;" d="M658 653L659 654L658 653z"/>
<path style="fill:#bd9329; stroke:none;" d="M657 655L658 656L657 655z"/>
<path style="fill:#7e5c0c; stroke:none;" d="M656 656L657 657L656 656z"/>
<path style="fill:#bd9329; stroke:none;" d="M655 657L656 658L655 657z"/>
<path style="fill:#7e5c0c; stroke:none;" d="M654 658L655 659L654 658M653 659L654 660L653 659z"/>
<path style="fill:#bd9329; stroke:none;" d="M653 660L654 661L653 660M652 661L653 662L652 661z"/>
<path style="fill:#7e5c0c; stroke:none;" d="M651 662L652 663L651 662M650 663L651 664L650 663M649 664L650 665L649 664M648 665L649 666L648 665M647 666L648 667L647 666M645 668L646 669L645 668M644 669L645 670L644 669M643 670L644 671L643 670M642 671L643 672L642 671z"/>
<path style="fill:#bd9329; stroke:none;" d="M641 672L642 673L641 672M640 673L641 674L640 673z"/>
<path style="fill:#7e5c0c; stroke:none;" d="M638 674L639 675L638 674M637 675L638 676L637 675z"/>
<path style="fill:#bd9329; stroke:none;" d="M636 676L637 677L636 676z"/>
<path style="fill:#7e5c0c; stroke:none;" d="M634 677L635 678L634 677z"/>
<path style="fill:#bd9329; stroke:none;" d="M633 678L634 679L633 678z"/>
<path style="fill:#7e5c0c; stroke:none;" d="M631 679L632 680L631 679z"/>
<path style="fill:#bd9329; stroke:none;" d="M630 680L631 681L630 680z"/>
<path style="fill:#7e5c0c; stroke:none;" d="M628 681L629 682L628 681z"/>
<path style="fill:#bd9329; stroke:none;" d="M627 682L628 683L627 682z"/>
<path style="fill:#7e5c0c; stroke:none;" d="M625 683L626 684L625 683M623 684L624 685L623 684M621 685L622 686L621 685z"/>
<path style="fill:#bd9329; stroke:none;" d="M622 685L623 686L622 685M620 686L621 687L620 686z"/>
<path style="fill:#7e5c0c; stroke:none;" d="M618 687L619 688L618 687M616 688L617 689L616 688M614 689L615 690L614 689M611 690L612 691L611 690z"/>
<path style="fill:#bd9329; stroke:none;" d="M612 690L613 691L612 690z"/>
<path style="fill:#7e5c0c; stroke:none;" d="M609 691L610 692L609 691z"/>
<path style="fill:#bd9329; stroke:none;" d="M610 691L611 692L610 691z"/>
<path style="fill:#7e5c0c; stroke:none;" d="M607 692L608 693L607 692z"/>
<path style="fill:#bd9329; stroke:none;" d="M608 692L609 693L608 692z"/>
<path style="fill:#7e5c0c; stroke:none;" d="M605 693L606 694L605 693z"/>
<path style="fill:#bd9329; stroke:none;" d="M606 693L607 694L606 693z"/>
<path style="fill:#7e5c0c; stroke:none;" d="M602 694L603 695L602 694z"/>
<path style="fill:#bd9329; stroke:none;" d="M603 694L604 695L603 694z"/>
<path style="fill:#7e5c0c; stroke:none;" d="M599 695L600 696L599 695z"/>
<path style="fill:#bd9329; stroke:none;" d="M600 695L601 696L600 695z"/>
<path style="fill:#7e5c0c; stroke:none;" d="M595 696L595 697L598 697L595 696z"/>
<path style="fill:#bd9329; stroke:none;" d="M598 696L599 697L598 696z"/>
<path style="fill:#7e5c0c; stroke:none;" d="M593 697L594 698L593 697z"/>
<path style="fill:#bd9329; stroke:none;" d="M594 697L595 698L594 697z"/>
<path style="fill:#7e5c0c; stroke:none;" d="M588 698L589 699L588 698z"/>
<path style="fill:#bd9329; stroke:none;" d="M589.667 698.333L590.333 698.667L589.667 698.333z"/>
<path style="fill:#7e5c0c; stroke:none;" d="M586 699L587 700L586 699z"/>
<path style="fill:#bd9329; stroke:none;" d="M587 699L588 700L587 699z"/>
<path style="fill:#7e5c0c; stroke:none;" d="M580 700L580 701L583 701L580 700z"/>
<path style="fill:#bd9329; stroke:none;" d="M583.667 700.333L584.333 700.667L583.667 700.333z"/>
<path style="fill:#7e5c0c; stroke:none;" d="M577.667 701.333L578.333 701.667L577.667 701.333z"/>
<path style="fill:#bd9329; stroke:none;" d="M579 701L580 702L579 701z"/>
<path style="fill:#7e5c0c; stroke:none;" d="M572 702L573 703L572 702z"/>
<path style="fill:#bd9329; stroke:none;" d="M573 702L574 703L573 702z"/>
<path style="fill:#7e5c0c; stroke:none;" d="M565.667 703.333L566.333 703.667L565.667 703.333z"/>
<path style="fill:#bd9329; stroke:none;" d="M567 703L567 704L571 704L567 703z"/>
<path style="fill:#7e5c0c; stroke:none;" d="M560.667 704.333L561.333 704.667L560.667 704.333z"/>
<path style="fill:#bd9329; stroke:none;" d="M562.667 704.333L563.333 704.667L562.667 704.333z"/>
<path style="fill:#7e5c0c; stroke:none;" d="M552 705L552 706L556 706L552 705z"/>
<path style="fill:#bd9329; stroke:none;" d="M556 705L556 706L559 706L556 705z"/>
<path style="fill:#7e5c0c; stroke:none;" d="M417 706L418 707L417 706M491 706L492 707L491 706M537 706L537 707L544 707L537 706z"/>
<path style="fill:#bd9329; stroke:none;" d="M544 706L544 707L549 707L544 706M320 707L320 708L417 708L387 707L320 707M493 707L493 708L532 708C521.726 703.689 504.172 707 493 707M859 746L859 753L860 753L859 746M140 748L140 753L141 753L140 748M141.333 757.667L141.667 758.333L141.333 757.667M858.333 757.667L858.667 758.333L858.333 757.667M142 764L143 765L142 764M857 764L858 765L857 764M143 768L144 769L143 768M856 768L857 769L856 768M144 772L145 773L144 772M855 772L856 773L855 772M145 775L146 776L145 775M854 775L855 776L854 775M146 778L147 779L146 778M853 778L854 779L853 778M147 781L148 782L147 781M852 781L853 782L852 781M148 784L149 785L148 784M851 784L852 785L851 784M149 786L150 787L149 786M850 786L851 787L850 786M152 793L153 794L152 793M847 793L848 794L847 793M154 797L155 798L154 797M845 797L846 798L845 797M156 800L157 801L156 800M843 800L844 801L843 800M159 805L160 806L159 805M840 805L841 806L840 805M161 808L162 809L161 808M838 808L839 809L838 808M164 812L165 813L164 812M835 812L836 813L835 812M166 815L167 816L166 815M167 816L168 817L167 816M832 816L833 817L832 816M168 817L169 818L168 817M831 817L832 818L831 817M169 818L170 819L169 818M830 818L831 819L830 818M180 829L181 830L180 829M819 829L820 830L819 829M181 830L182 831L181 830M818 830L819 831L818 830M182 831L183 832L182 831M817 831L818 832L817 831M183 832L184 833L183 832M187 835L188 836L187 835M812 835L813 836L812 835M190 837L191 838L190 837M809 837L810 838L809 837M194 840L195 841L194 840M805 840L806 841L805 840M199 843L200 844L199 843M800 843L801 844L800 843M201 844L202 845L201 844M798 844L799 845L798 844M209 848L210 849L209 848M790 848L791 849L790 848M211 849L212 850L211 849M788 849L789 850L788 849M213 850L214 851L213 850M786 850L787 851L786 850M216 851L217 852L216 851M783 851L784 852L783 851M221 853L222 854L221 853M778 853L779 854L778 853M224 854L225 855L224 854M775 854L776 855L775 854M227.667 855.333L228.333 855.667L227.667 855.333M771.667 855.333L772.333 855.667L771.667 855.333M231 856L232 857L231 856M768 856L769 857L768 856M235 857L236 858L235 857M764 857L765 858L764 857M241 858L242 859L241 858M757.667 858.333L758.333 858.667L757.667 858.333M247 859L247 860L251 860L247 859M747 859L747 860L753 860L747 859z"/>
</svg>
