<?xml version="1.0" standalone="yes"?>
<svg xmlns="http://www.w3.org/2000/svg" width="1000" height="1000">
<path style="fill:#e75117; stroke:none;" d="M0 0L0 1000L1000 1000L1000 0L0 0z"/>
<path style="fill:#764f0d; stroke:none;" d="M246 140L246 141L253 141L246 140z"/>
<path style="fill:#31271d; stroke:none;" d="M253 140.424C204.153 146.841 161.579 173.936 146.029 223C139.31 244.199 140 266.05 140 288L140 368L140 653C140 704.028 130.501 764.97 161.91 809C201.164 864.029 261.878 860 322 860L610 860L701 860C721.318 860 741.89 861.08 762 857.714C809.678 849.734 848.647 810.155 857.54 763C861.066 744.305 860 724.934 860 706L860 621L860 350C860 296.802 870.11 233.209 835.869 188C795.842 135.152 735.211 140 676 140L393 140L301 140C285.296 140 268.573 138.379 253 140.424z"/>
<path style="fill:#764f0d; stroke:none;" d="M746 140L746 141L754 141L746 140M240 141L240 142L243 142L240 141M756 141L756 142L760 142L756 141M234 142L234 143L237 143L234 142M763 142L763 143L766 143L763 142M231.667 143.333L232.333 143.667L231.667 143.333M767.667 143.333L768.333 143.667L767.667 143.333M226 144L226 145L229 145L226 144M771 144L771 145L774 145L771 144M224 145L225 146L224 145M775 145L776 146L775 145M221 146L222 147L221 146M778 146L779 147L778 146M218.667 147.333L219.333 147.667L218.667 147.333M780.667 147.333L781.333 147.667L780.667 147.333M215.667 148.333L216.333 148.667L215.667 148.333M783.667 148.333L784.333 148.667L783.667 148.333M213 149L214 150L213 149M786 149L787 150L786 149M211 150L212 151L211 150M788 150L789 151L788 150M209 151L210 152L209 151M790 151L791 152L790 151M206.667 152.333L207.333 152.667L206.667 152.333M792.667 152.333L793.333 152.667L792.667 152.333M205 153L206 154L205 153M794 153L795 154L794 153M203 154L204 155L203 154M796 154L797 155L796 154M201 155L202 156L201 155M798 155L799 156L798 155M199 156L200 157L199 156M800 156L801 157L800 156M198 157L199 158L198 157M801 157L802 158L801 157M196 158L197 159L196 158M803 158L804 159L803 158M194 159L195 160L194 159M805 159L806 160L805 159M192 160L193 161L192 160M807 160L808 161L807 160M191 161L192 162L191 161M808 161L809 162L808 161M190 162L191 163L190 162M809 162L810 163L809 162M187 164L188 165L187 164M812 164L813 165L812 164M186 165L187 166L186 165M813 165L814 166L813 165M184 166L185 167L184 166M815 166L816 167L815 166M183 167L184 168L183 167M816 167L817 168L816 167M182 168L183 169L182 168M817 168L818 169L817 168M181 169L182 170L181 169M818 169L819 170L818 169M180 170L181 171L180 170M819 170L820 171L819 170M179 171L180 172L179 171M820 171L821 172L820 171M821 172L822 173L821 172M827 178L828 179L827 178M171 179L172 180L171 179M828 179L829 180L828 179M170 180L171 181L170 180M829 180L830 181L829 180M169 181L170 182L169 181M830 181L831 182L830 181M168 182L169 183L168 182M831 182L832 183L831 182M167 183L168 184L167 183M832 183L833 184L832 183M166 184L167 185L166 184M833 184L834 185L833 184M165 186L166 187L165 186M834 186L835 187L834 186M164 187L165 188L164 187M835 187L836 188L835 187M162 190L163 191L162 190M837 190L838 191L837 190M161 191L162 192L161 191M838 191L839 192L838 191M160 192L161 193L160 192M839 192L840 193L839 192M159 194L160 195L159 194M840 194L841 195L840 194M158 196L159 197L158 196M841 196L842 197L841 196M157 197L158 198L157 197M842 197L843 198L842 197M156 199L157 200L156 199M843 199L844 200L843 199M155 201L156 202L155 201M844 201L845 202L844 201M154 202L155 203L154 202M845 202L846 203L845 202M153.333 204.667L153.667 205.333L153.333 204.667M846 204L847 205L846 204M152 206L153 207L152 206M847.333 206.667L847.667 207.333L847.333 206.667M151.333 208.667L151.667 209.333L151.333 208.667M848.333 208.667L848.667 209.333L848.333 208.667M150.333 210.667L150.667 211.333L150.333 210.667M849.333 210.667L849.667 211.333L849.333 210.667M149 213L150 214L149 213M850 213L851 214L850 213M148.333 215.667L148.667 216.333L148.333 215.667M851.333 215.667L851.667 216.333L851.333 215.667M147 218L148 219L147 218M852.333 218.667L852.667 219.333L852.333 218.667M146.333 220.667L146.667 221.333L146.333 220.667M853.333 220.667L853.667 221.333L853.333 220.667M145.333 223.667L145.667 224.333L145.333 223.667M854 224L855 225L854 224M144 226L144 229L145 229L144 226M855 226L855 229L856 229L855 226M143.333 231.667L143.667 232.333L143.333 231.667M856.333 231.667L856.667 232.333L856.333 231.667M142 234L142 237L143 237L142 234M857 234L857 237L858 237L857 234M141 240L141 244L142 244L141 240M858 240L858 244L859 244L858 240M140 246L140 253L141 253L140 246M859 246L859 254L860 254L859 246M418 389L418 388L320 388L320 293L533 293C520.593 287.794 498.515 292 485 292L371 292L334 292C330.469 292 323.543 290.699 320.603 293.028C316.954 295.918 319 307.765 319 312L319 368C319 372.345 316.738 386.143 321.318 388.397C327.954 391.662 341.637 389 349 389L418 389z"/>
<path style="fill:#f7b912; stroke:none;" d="M320 293L320 388L518 388C543.291 388 572.19 396.117 564.786 428.286C559.172 452.679 524.265 448 506 448L320 448L320 707L394 707C398.693 707 415.016 709.519 417.397 704.682C421.51 696.323 418 678.323 418 669L418 579C418 570.075 413.155 541.442 425.001 540.109C448.046 537.516 472.796 540 496 540C514.371 540 534.237 537.782 552 543.347C572.859 549.883 585.29 575.27 570.61 594C557.671 610.508 538.091 611 519 611C513.446 611 495.756 608.135 492.028 612.742C489.953 615.306 491 620.927 491 624L491 654L491 691C491 694.731 489.577 702.302 492.028 705.397C495.552 709.846 513.62 707 519 707C547.32 707 576.143 703.901 603 694.302C662.541 673.019 696.571 603.844 673.075 544C667.793 530.548 661.873 519.085 652.41 508.004C649.011 504.024 638.543 498.071 637.782 492.83C637.245 489.125 642.722 485.355 644.911 483C651.406 476.008 657.214 467.728 661.135 459C671.627 435.643 671.21 409.429 665.105 385C653.66 339.209 613.383 310.158 570 298.294C539.517 289.958 506.271 293 475 293L320 293z"/>
<path style="fill:#b8902c; stroke:none;" d="M538 293L538 294L543 294L538 293z"/>
<path style="fill:#764f0d; stroke:none;" d="M543 293L543 294L546 294L543 293z"/>
<path style="fill:#b8902c; stroke:none;" d="M549 294L549 295L552 295L549 294z"/>
<path style="fill:#764f0d; stroke:none;" d="M552 294L552 295L555 295L552 294z"/>
<path style="fill:#b8902c; stroke:none;" d="M556.667 295.333L557.333 295.667L556.667 295.333z"/>
<path style="fill:#764f0d; stroke:none;" d="M558.667 295.333L559.333 295.667L558.667 295.333z"/>
<path style="fill:#b8902c; stroke:none;" d="M561.667 296.333L562.333 296.667L561.667 296.333z"/>
<path style="fill:#764f0d; stroke:none;" d="M563 296L563 297L566 297L563 296z"/>
<path style="fill:#b8902c; stroke:none;" d="M567 297L568 298L567 297z"/>
<path style="fill:#764f0d; stroke:none;" d="M568.667 297.333L569.333 297.667L568.667 297.333z"/>
<path style="fill:#b8902c; stroke:none;" d="M570.667 298.333L571.333 298.667L570.667 298.333z"/>
<path style="fill:#764f0d; stroke:none;" d="M572 298L573 299L572 298z"/>
<path style="fill:#b8902c; stroke:none;" d="M574.667 299.333L575.333 299.667L574.667 299.333z"/>
<path style="fill:#764f0d; stroke:none;" d="M576 299L577 300L576 299z"/>
<path style="fill:#b8902c; stroke:none;" d="M578.667 300.333L579.333 300.667L578.667 300.333z"/>
<path style="fill:#764f0d; stroke:none;" d="M580 300L581 301L580 300z"/>
<path style="fill:#b8902c; stroke:none;" d="M582 301L583 302L582 301z"/>
<path style="fill:#764f0d; stroke:none;" d="M583.667 301.333L584.333 301.667L583.667 301.333z"/>
<path style="fill:#b8902c; stroke:none;" d="M585 302L586 303L585 302z"/>
<path style="fill:#764f0d; stroke:none;" d="M586 302L587 303L586 302z"/>
<path style="fill:#b8902c; stroke:none;" d="M588 303L589 304L588 303z"/>
<path style="fill:#764f0d; stroke:none;" d="M589 303L590 304L589 303z"/>
<path style="fill:#b8902c; stroke:none;" d="M591 304L592 305L591 304z"/>
<path style="fill:#764f0d; stroke:none;" d="M592 304L593 305L592 304z"/>
<path style="fill:#b8902c; stroke:none;" d="M593 305L594 306L593 305z"/>
<path style="fill:#764f0d; stroke:none;" d="M594 305L595 306L594 305z"/>
<path style="fill:#b8902c; stroke:none;" d="M596 306L597 307L596 306M598 307L599 308L598 307z"/>
<path style="fill:#764f0d; stroke:none;" d="M599 307L600 308L599 307z"/>
<path style="fill:#b8902c; stroke:none;" d="M600 308L601 309L600 308z"/>
<path style="fill:#764f0d; stroke:none;" d="M601 308L602 309L601 308z"/>
<path style="fill:#b8902c; stroke:none;" d="M602 309L603 310L602 309z"/>
<path style="fill:#764f0d; stroke:none;" d="M603 309L604 310L603 309z"/>
<path style="fill:#b8902c; stroke:none;" d="M604 310L605 311L604 310z"/>
<path style="fill:#764f0d; stroke:none;" d="M606 311L607 312L606 311z"/>
<path style="fill:#b8902c; stroke:none;" d="M607 312L608 313L607 312z"/>
<path style="fill:#764f0d; stroke:none;" d="M609 313L610 314L609 313z"/>
<path style="fill:#b8902c; stroke:none;" d="M610 314L611 315L610 314z"/>
<path style="fill:#764f0d; stroke:none;" d="M611 314L612 315L611 314M612 315L613 316L612 315z"/>
<path style="fill:#b8902c; stroke:none;" d="M613 316L614 317L613 316z"/>
<path style="fill:#764f0d; stroke:none;" d="M614 316L615 317L614 316M615 317L616 318L615 317z"/>
<path style="fill:#b8902c; stroke:none;" d="M616 318L617 319L616 318M617 319L618 320L617 319z"/>
<path style="fill:#764f0d; stroke:none;" d="M618 319L619 320L618 319M619 320L620 321L619 320z"/>
<path style="fill:#b8902c; stroke:none;" d="M620 321L621 322L620 321M621 322L622 323L621 322z"/>
<path style="fill:#764f0d; stroke:none;" d="M623 323L624 324L623 323M624 324L625 325L624 324z"/>
<path style="fill:#b8902c; stroke:none;" d="M625 325L626 326L625 325M626 326L627 327L626 326M627 327L628 328L627 327M628 328L629 329L628 328z"/>
<path style="fill:#764f0d; stroke:none;" d="M629 328L630 329L629 328M630 329L631 330L630 329M631 330L632 331L631 330M632 331L633 332L632 331M633 332L634 333L633 332z"/>
<path style="fill:#b8902c; stroke:none;" d="M634 333L635 334L634 333M635 334L636 335L635 334M636 335L637 336L636 335M637 336L638 337L637 336z"/>
<path style="fill:#764f0d; stroke:none;" d="M638 337L639 338L638 337M639 338L640 339L639 338M640 339L641 340L640 339M641 340L642 341L641 340M642 341L643 342L642 341z"/>
<path style="fill:#b8902c; stroke:none;" d="M642 342L643 343L642 342M643 343L644 344L643 343M644 344L645 345L644 344z"/>
<path style="fill:#764f0d; stroke:none;" d="M645 345L646 346L645 345M646 346L647 347L646 346z"/>
<path style="fill:#b8902c; stroke:none;" d="M647 348L648 349L647 348M648 349L649 350L648 349z"/>
<path style="fill:#764f0d; stroke:none;" d="M649 350L650 351L649 350M650 351L651 352L650 351z"/>
<path style="fill:#b8902c; stroke:none;" d="M650 352L651 353L650 352z"/>
<path style="fill:#764f0d; stroke:none;" d="M651 353L652 354L651 353z"/>
<path style="fill:#b8902c; stroke:none;" d="M652 355L653 356L652 355z"/>
<path style="fill:#764f0d; stroke:none;" d="M653 356L654 357L653 356z"/>
<path style="fill:#b8902c; stroke:none;" d="M654 358L655 359L654 358z"/>
<path style="fill:#764f0d; stroke:none;" d="M655 359L656 360L655 359z"/>
<path style="fill:#b8902c; stroke:none;" d="M655 360L656 361L655 360z"/>
<path style="fill:#764f0d; stroke:none;" d="M656 361L657 362L656 361z"/>
<path style="fill:#b8902c; stroke:none;" d="M656 362L657 363L656 362z"/>
<path style="fill:#764f0d; stroke:none;" d="M657 363L658 364L657 363M658 365L659 366L658 365M659 367L660 368L659 367M660 369L661 370L660 369z"/>
<path style="fill:#b8902c; stroke:none;" d="M660 370L661 371L660 370z"/>
<path style="fill:#764f0d; stroke:none;" d="M661 371L662 372L661 371z"/>
<path style="fill:#b8902c; stroke:none;" d="M661 372L662 373L661 372z"/>
<path style="fill:#764f0d; stroke:none;" d="M662 373L663 374L662 373z"/>
<path style="fill:#b8902c; stroke:none;" d="M662.333 374.667L662.667 375.333L662.333 374.667z"/>
<path style="fill:#764f0d; stroke:none;" d="M663.333 377.667L663.667 378.333L663.333 377.667z"/>
<path style="fill:#b8902c; stroke:none;" d="M663 379L664 380L663 379z"/>
<path style="fill:#764f0d; stroke:none;" d="M664 381L665 382L664 381z"/>
<path style="fill:#b8902c; stroke:none;" d="M664 382L665 383L664 382z"/>
<path style="fill:#764f0d; stroke:none;" d="M665 384L666 385L665 384z"/>
<path style="fill:#b8902c; stroke:none;" d="M665.333 385.667L665.667 386.333L665.333 385.667z"/>
<path style="fill:#764f0d; stroke:none;" d="M421 388L421 389L529 389L496 388L421 388z"/>
<path style="fill:#b8902c; stroke:none;" d="M529 388L529 389L535 389L529 388z"/>
<path style="fill:#764f0d; stroke:none;" d="M666 388L667 389L666 388M536 389L536 390L539 390L536 389z"/>
<path style="fill:#b8902c; stroke:none;" d="M539 389L539 390L542 390L539 389M666 389L666 392L667 392L666 389z"/>
<path style="fill:#764f0d; stroke:none;" d="M543.667 390.333L544.333 390.667L543.667 390.333z"/>
<path style="fill:#b8902c; stroke:none;" d="M545 390L546 391L545 390z"/>
<path style="fill:#764f0d; stroke:none;" d="M547 391L548 392L547 391z"/>
<path style="fill:#b8902c; stroke:none;" d="M548 391L549 392L548 391z"/>
<path style="fill:#764f0d; stroke:none;" d="M549 392L550 393L549 392z"/>
<path style="fill:#b8902c; stroke:none;" d="M550 392L551 393L550 392M552 393L553 394L552 393z"/>
<path style="fill:#764f0d; stroke:none;" d="M667.333 393.667L667.667 394.333L667.333 393.667M553 394L554 395L553 394z"/>
<path style="fill:#b8902c; stroke:none;" d="M554 394L555 395L554 394M555 395L556 396L555 395M667.333 395.667L667.667 396.333L667.333 395.667z"/>
<path style="fill:#764f0d; stroke:none;" d="M556 396L557 397L556 396M557 397L558 398L557 397M558 398L559 399L558 398M559 399L560 400L559 399M560 400L561 401L560 400M668 400L668 404L669 404L668 400z"/>
<path style="fill:#b8902c; stroke:none;" d="M561 401L562 402L561 401z"/>
<path style="fill:#764f0d; stroke:none;" d="M561 402L562 403L561 402z"/>
<path style="fill:#b8902c; stroke:none;" d="M562 403L563 404L562 403z"/>
<path style="fill:#764f0d; stroke:none;" d="M562 404L563 405L562 404z"/>
<path style="fill:#b8902c; stroke:none;" d="M668 404L668 407L669 407L668 404M563 406L564 407L563 406z"/>
<path style="fill:#764f0d; stroke:none;" d="M563 407L564 408L563 407M669 408L669 411L670 411L669 408z"/>
<path style="fill:#b8902c; stroke:none;" d="M564 409L564 412L565 412L564 409M669 411L669 415L670 415L669 411z"/>
<path style="fill:#764f0d; stroke:none;" d="M564 412L564 415L565 415L564 412z"/>
<path style="fill:#b8902c; stroke:none;" d="M565 417L566 418L565 417M669 424L669 429L670 429L669 424M565 426L566 427L565 426z"/>
<path style="fill:#764f0d; stroke:none;" d="M564 428L565 429L564 428z"/>
<path style="fill:#b8902c; stroke:none;" d="M564 429L565 430L564 429z"/>
<path style="fill:#764f0d; stroke:none;" d="M669.333 429.667L669.667 430.333L669.333 429.667M563 431L564 432L563 431z"/>
<path style="fill:#b8902c; stroke:none;" d="M563 432L564 433L563 432M668 432L668 435L669 435L668 432z"/>
<path style="fill:#764f0d; stroke:none;" d="M562 433L563 434L562 433z"/>
<path style="fill:#b8902c; stroke:none;" d="M562 434L563 435L562 434M561 435L562 436L561 435z"/>
<path style="fill:#764f0d; stroke:none;" d="M668.333 435.667L668.667 436.333L668.333 435.667M560 436L561 437L560 436M559 437L560 438L559 437z"/>
<path style="fill:#b8902c; stroke:none;" d="M559 438L560 439L559 438M667.333 438.667L667.667 439.333L667.333 438.667z"/>
<path style="fill:#764f0d; stroke:none;" d="M557 439L558 440L557 439z"/>
<path style="fill:#b8902c; stroke:none;" d="M558 439L559 440L558 439M556 440L557 441L556 440z"/>
<path style="fill:#764f0d; stroke:none;" d="M667.333 440.667L667.667 441.333L667.333 440.667M554 441L555 442L554 441z"/>
<path style="fill:#b8902c; stroke:none;" d="M555 441L556 442L555 441z"/>
<path style="fill:#764f0d; stroke:none;" d="M553 442L554 443L553 442M551 443L552 444L551 443z"/>
<path style="fill:#b8902c; stroke:none;" d="M552 443L553 444L552 443M666 443L667 444L666 443z"/>
<path style="fill:#764f0d; stroke:none;" d="M548 444L549 445L548 444z"/>
<path style="fill:#b8902c; stroke:none;" d="M549 444L550 445L549 444z"/>
<path style="fill:#764f0d; stroke:none;" d="M666 444L667 445L666 444M545.667 445.333L546.333 445.667L545.667 445.333z"/>
<path style="fill:#b8902c; stroke:none;" d="M547 445L548 446L547 445z"/>
<path style="fill:#764f0d; stroke:none;" d="M542 446L543 447L542 446z"/>
<path style="fill:#b8902c; stroke:none;" d="M543 446L544 447L543 446M665 446L666 447L665 446z"/>
<path style="fill:#764f0d; stroke:none;" d="M527 447L527 448L535 448L527 447z"/>
<path style="fill:#b8902c; stroke:none;" d="M535 447L535 448L540 448L535 447z"/>
<path style="fill:#764f0d; stroke:none;" d="M665.333 447.667L665.667 448.333L665.333 447.667M319 448L319 707L320 707L320 524L320 472L319 448z"/>
<path style="fill:#b8902c; stroke:none;" d="M482 448L482 449L485 449L482 448M664.333 449.667L664.667 450.333L664.333 449.667z"/>
<path style="fill:#764f0d; stroke:none;" d="M664 451L665 452L664 451M663 453L664 454L663 453z"/>
<path style="fill:#b8902c; stroke:none;" d="M662 455L663 456L662 455z"/>
<path style="fill:#764f0d; stroke:none;" d="M662 456L663 457L662 456M661 458L662 459L661 458z"/>
<path style="fill:#b8902c; stroke:none;" d="M660 460L661 461L660 460z"/>
<path style="fill:#764f0d; stroke:none;" d="M659 462L660 463L659 462M658 464L659 465L658 464z"/>
<path style="fill:#b8902c; stroke:none;" d="M657 465L658 466L657 465z"/>
<path style="fill:#764f0d; stroke:none;" d="M657 466L658 467L657 466z"/>
<path style="fill:#b8902c; stroke:none;" d="M656 467L657 468L656 467z"/>
<path style="fill:#764f0d; stroke:none;" d="M656 468L657 469L656 468M655 469L656 470L655 469z"/>
<path style="fill:#b8902c; stroke:none;" d="M654 470L655 471L654 470z"/>
<path style="fill:#764f0d; stroke:none;" d="M654 471L655 472L654 471M653 472L654 473L653 472z"/>
<path style="fill:#b8902c; stroke:none;" d="M652 473L653 474L652 473z"/>
<path style="fill:#764f0d; stroke:none;" d="M652 474L653 475L652 474M651 475L652 476L651 475z"/>
<path style="fill:#b8902c; stroke:none;" d="M650 476L651 477L650 476M649 477L650 478L649 477M648 478L649 479L648 478z"/>
<path style="fill:#764f0d; stroke:none;" d="M648 479L649 480L648 479M647 480L648 481L647 480M646 481L647 482L646 481M645 482L646 483L645 482z"/>
<path style="fill:#b8902c; stroke:none;" d="M644 483L645 484L644 483z"/>
<path style="fill:#764f0d; stroke:none;" d="M643 484L644 485L643 484M642 485L643 486L642 485M641 486L642 487L641 486M640 487L641 488L640 487M639 488L640 489L639 488M638 489L639 490L638 489M637 490L638 491L637 490z"/>
<path style="fill:#b8902c; stroke:none;" d="M636.333 491.667L636.667 492.333L636.333 491.667z"/>
<path style="fill:#764f0d; stroke:none;" d="M637 493L638 494L637 493z"/>
<path style="fill:#b8902c; stroke:none;" d="M637 494L638 495L637 494z"/>
<path style="fill:#764f0d; stroke:none;" d="M639 495L640 496L639 495M640 496L641 497L640 496M641 497L642 498L641 497z"/>
<path style="fill:#b8902c; stroke:none;" d="M642 498L643 499L642 498M643 499L644 500L643 499M644 500L645 501L644 500M645 501L646 502L645 501z"/>
<path style="fill:#764f0d; stroke:none;" d="M646 501L647 502L646 501M647 502L648 503L647 502M648 503L649 504L648 503M649 504L650 505L649 504M650 505L651 506L650 505M651 506L652 507L651 506M652 507L653 508L652 507z"/>
<path style="fill:#b8902c; stroke:none;" d="M652 508L653 509L652 508M653 509L654 510L653 509M654 510L655 511L654 510z"/>
<path style="fill:#764f0d; stroke:none;" d="M655 511L656 512L655 511M656 512L657 513L656 512z"/>
<path style="fill:#b8902c; stroke:none;" d="M657 514L658 515L657 514M658 515L659 516L658 515z"/>
<path style="fill:#764f0d; stroke:none;" d="M659 516L660 517L659 516M660 517L661 518L660 517z"/>
<path style="fill:#b8902c; stroke:none;" d="M660 518L661 519L660 518z"/>
<path style="fill:#764f0d; stroke:none;" d="M661 519L662 520L661 519M662 520L663 521L662 520z"/>
<path style="fill:#b8902c; stroke:none;" d="M662 521L663 522L662 521z"/>
<path style="fill:#764f0d; stroke:none;" d="M663 522L664 523L663 522z"/>
<path style="fill:#b8902c; stroke:none;" d="M664 524L665 525L664 524z"/>
<path style="fill:#764f0d; stroke:none;" d="M665 525L666 526L665 525z"/>
<path style="fill:#b8902c; stroke:none;" d="M666 527L667 528L666 527z"/>
<path style="fill:#764f0d; stroke:none;" d="M667 528L668 529L667 528z"/>
<path style="fill:#b8902c; stroke:none;" d="M667 529L668 530L667 529z"/>
<path style="fill:#764f0d; stroke:none;" d="M668 530L668 533L669 533L668 530z"/>
<path style="fill:#b8902c; stroke:none;" d="M668 533L669 534L668 533z"/>
<path style="fill:#764f0d; stroke:none;" d="M669 535L670 536L669 535M670 537L671 538L670 537z"/>
<path style="fill:#b8902c; stroke:none;" d="M670 538L671 539L670 538z"/>
<path style="fill:#764f0d; stroke:none;" d="M671 539L672 540L671 539z"/>
<path style="fill:#b8902c; stroke:none;" d="M421 540L421 541L424 541L421 540z"/>
<path style="fill:#764f0d; stroke:none;" d="M424 540L424 541L533 541L500 540L424 540z"/>
<path style="fill:#b8902c; stroke:none;" d="M533 540L533 541L539 541L533 540M671 540L672 541L671 540z"/>
<path style="fill:#764f0d; stroke:none;" d="M419 541L420 542L419 541M541.667 541.333L542.333 541.667L541.667 541.333z"/>
<path style="fill:#b8902c; stroke:none;" d="M543.667 541.333L544.333 541.667L543.667 541.333z"/>
<path style="fill:#764f0d; stroke:none;" d="M672 541L673 542L672 541z"/>
<path style="fill:#b8902c; stroke:none;" d="M418 542L419 543L418 542z"/>
<path style="fill:#764f0d; stroke:none;" d="M547 542L548 543L547 542z"/>
<path style="fill:#b8902c; stroke:none;" d="M548.667 542.333L549.333 542.667L548.667 542.333M672 542L673 543L672 542z"/>
<path style="fill:#764f0d; stroke:none;" d="M418 543L418 705L419 705L419 591C419 577.485 423.206 555.407 418 543M550.667 543.333L551.333 543.667L550.667 543.333z"/>
<path style="fill:#b8902c; stroke:none;" d="M552 543L553 544L552 543z"/>
<path style="fill:#764f0d; stroke:none;" d="M554 544L555 545L554 544z"/>
<path style="fill:#b8902c; stroke:none;" d="M555 544L556 545L555 544M673 544L674 545L673 544z"/>
<path style="fill:#764f0d; stroke:none;" d="M557 545L558 546L557 545z"/>
<path style="fill:#b8902c; stroke:none;" d="M558 545L559 546L558 545z"/>
<path style="fill:#764f0d; stroke:none;" d="M559 546L560 547L559 546z"/>
<path style="fill:#b8902c; stroke:none;" d="M560 546L561 547L560 546z"/>
<path style="fill:#764f0d; stroke:none;" d="M674 546L675 547L674 546M561 547L562 548L561 547z"/>
<path style="fill:#b8902c; stroke:none;" d="M562 547L563 548L562 547M674.333 547.667L674.667 548.333L674.333 547.667z"/>
<path style="fill:#764f0d; stroke:none;" d="M563 548L564 549L563 548M564 549L565 550L564 549M675.333 549.667L675.667 550.333L675.333 549.667M565 550L566 551L565 550M566 551L567 552L566 551z"/>
<path style="fill:#b8902c; stroke:none;" d="M675 551L676 552L675 551z"/>
<path style="fill:#764f0d; stroke:none;" d="M567 552L568 553L567 552M568 553L569 554L568 553M676 553L677 554L676 553z"/>
<path style="fill:#b8902c; stroke:none;" d="M569 554L570 555L569 554M676 554L677 555L676 554M570 555L571 556L570 555z"/>
<path style="fill:#764f0d; stroke:none;" d="M570 556L571 557L570 556M677 556L678 557L677 556M571 557L572 558L571 557z"/>
<path style="fill:#b8902c; stroke:none;" d="M677.333 557.667L677.667 558.333L677.333 557.667M572 558L573 559L572 558z"/>
<path style="fill:#764f0d; stroke:none;" d="M572 559L573 560L572 559z"/>
<path style="fill:#b8902c; stroke:none;" d="M573 560L574 561L573 560z"/>
<path style="fill:#764f0d; stroke:none;" d="M678 560L678 563L679 563L678 560M573 561L574 562L573 561z"/>
<path style="fill:#b8902c; stroke:none;" d="M574 562L575 563L574 562z"/>
<path style="fill:#764f0d; stroke:none;" d="M574 563L575 564L574 563z"/>
<path style="fill:#b8902c; stroke:none;" d="M678.333 563.667L678.667 564.333L678.333 563.667M575 565L576 566L575 565z"/>
<path style="fill:#764f0d; stroke:none;" d="M575 566L576 567L575 566M679.333 566.667L679.667 567.333L679.333 566.667z"/>
<path style="fill:#b8902c; stroke:none;" d="M679.333 568.667L679.667 569.333L679.333 568.667M576.333 569.667L576.667 570.333L576.333 569.667z"/>
<path style="fill:#764f0d; stroke:none;" d="M576 571L576 579L577 579L576 571M680 576L680 591L681 591L680 576z"/>
<path style="fill:#b8902c; stroke:none;" d="M576 579L576 582L577 582L576 579z"/>
<path style="fill:#764f0d; stroke:none;" d="M575 583L576 584L575 583z"/>
<path style="fill:#b8902c; stroke:none;" d="M575 584L576 585L575 584z"/>
<path style="fill:#764f0d; stroke:none;" d="M574 586L575 587L574 586z"/>
<path style="fill:#b8902c; stroke:none;" d="M574 587L575 588L574 587M573 589L574 590L573 589M572 591L573 592L572 591z"/>
<path style="fill:#764f0d; stroke:none;" d="M571 592L572 593L571 592z"/>
<path style="fill:#b8902c; stroke:none;" d="M571 593L572 594L571 593M570 594L571 595L570 594z"/>
<path style="fill:#764f0d; stroke:none;" d="M569 595L570 596L569 595z"/>
<path style="fill:#b8902c; stroke:none;" d="M679 595L679 598L680 598L679 595z"/>
<path style="fill:#764f0d; stroke:none;" d="M568 596L569 597L568 596M567 597L568 598L567 597M566 598L567 599L566 598M679.333 598.667L679.667 599.333L679.333 598.667M565 599L566 600L565 599M564 600L565 601L564 600z"/>
<path style="fill:#b8902c; stroke:none;" d="M563 601L564 602L563 601M678 601L678 604L679 604L678 601z"/>
<path style="fill:#764f0d; stroke:none;" d="M561 602L562 603L561 602M559 603L560 604L559 603z"/>
<path style="fill:#b8902c; stroke:none;" d="M560 603L561 604L560 603z"/>
<path style="fill:#764f0d; stroke:none;" d="M557 604L558 605L557 604z"/>
<path style="fill:#b8902c; stroke:none;" d="M558 604L559 605L558 604z"/>
<path style="fill:#764f0d; stroke:none;" d="M678.333 604.667L678.667 605.333L678.333 604.667M555 605L556 606L555 605z"/>
<path style="fill:#b8902c; stroke:none;" d="M556 605L557 606L556 605z"/>
<path style="fill:#764f0d; stroke:none;" d="M553 606L554 607L553 606z"/>
<path style="fill:#b8902c; stroke:none;" d="M554 606L555 607L554 606z"/>
<path style="fill:#764f0d; stroke:none;" d="M550 607L551 608L550 607z"/>
<path style="fill:#b8902c; stroke:none;" d="M551 607L552 608L551 607z"/>
<path style="fill:#764f0d; stroke:none;" d="M546.667 608.333L547.333 608.667L546.667 608.333z"/>
<path style="fill:#b8902c; stroke:none;" d="M548.667 608.333L549.333 608.667L548.667 608.333M677 608L678 609L677 608z"/>
<path style="fill:#764f0d; stroke:none;" d="M542.667 609.333L543.333 609.667L542.667 609.333z"/>
<path style="fill:#b8902c; stroke:none;" d="M544.667 609.333L545.333 609.667L544.667 609.333z"/>
<path style="fill:#764f0d; stroke:none;" d="M677.333 609.667L677.667 610.333L677.333 609.667M493 610L493 611L507 611L493 610M524 610L524 611L537 611L524 610z"/>
<path style="fill:#b8902c; stroke:none;" d="M537 610L537 611L541 611L537 610z"/>
<path style="fill:#764f0d; stroke:none;" d="M491 611L492 612L491 611z"/>
<path style="fill:#b8902c; stroke:none;" d="M492 611L493 612L492 611M676.333 612.667L676.667 613.333L676.333 612.667z"/>
<path style="fill:#764f0d; stroke:none;" d="M490 613L490 705L491 705L491 641L490 613M676.333 614.667L676.667 615.333L676.333 614.667z"/>
<path style="fill:#b8902c; stroke:none;" d="M675 617L676 618L675 617z"/>
<path style="fill:#764f0d; stroke:none;" d="M675 618L676 619L675 618z"/>
<path style="fill:#b8902c; stroke:none;" d="M674 620L675 621L674 620z"/>
<path style="fill:#764f0d; stroke:none;" d="M674 621L675 622L674 621z"/>
<path style="fill:#b8902c; stroke:none;" d="M673 623L674 624L673 623z"/>
<path style="fill:#764f0d; stroke:none;" d="M673 624L674 625L673 624z"/>
<path style="fill:#b8902c; stroke:none;" d="M672 626L673 627L672 626z"/>
<path style="fill:#764f0d; stroke:none;" d="M672 627L673 628L672 627z"/>
<path style="fill:#b8902c; stroke:none;" d="M671 629L672 630L671 629z"/>
<path style="fill:#764f0d; stroke:none;" d="M671 630L672 631L671 630z"/>
<path style="fill:#b8902c; stroke:none;" d="M670 631L671 632L670 631z"/>
<path style="fill:#764f0d; stroke:none;" d="M670 632L671 633L670 632z"/>
<path style="fill:#b8902c; stroke:none;" d="M669 634L670 635L669 634z"/>
<path style="fill:#764f0d; stroke:none;" d="M669 635L670 636L669 635z"/>
<path style="fill:#b8902c; stroke:none;" d="M668 636L669 637L668 636z"/>
<path style="fill:#764f0d; stroke:none;" d="M668 637L669 638L668 637M667 639L668 640L667 639z"/>
<path style="fill:#b8902c; stroke:none;" d="M666 640L667 641L666 640z"/>
<path style="fill:#764f0d; stroke:none;" d="M666 641L667 642L666 641z"/>
<path style="fill:#b8902c; stroke:none;" d="M665 642L666 643L665 642z"/>
<path style="fill:#764f0d; stroke:none;" d="M665 643L666 644L665 643z"/>
<path style="fill:#b8902c; stroke:none;" d="M664 644L665 645L664 644z"/>
<path style="fill:#764f0d; stroke:none;" d="M663 646L664 647L663 646z"/>
<path style="fill:#b8902c; stroke:none;" d="M662 647L663 648L662 647z"/>
<path style="fill:#764f0d; stroke:none;" d="M662 648L663 649L662 648z"/>
<path style="fill:#b8902c; stroke:none;" d="M661 649L662 650L661 649M660 650L661 651L660 650z"/>
<path style="fill:#764f0d; stroke:none;" d="M660 651L661 652L660 651M659 652L660 653L659 652z"/>
<path style="fill:#b8902c; stroke:none;" d="M658 653L659 654L658 653z"/>
<path style="fill:#764f0d; stroke:none;" d="M657 655L658 656L657 655z"/>
<path style="fill:#b8902c; stroke:none;" d="M656 656L657 657L656 656z"/>
<path style="fill:#764f0d; stroke:none;" d="M655 657L656 658L655 657z"/>
<path style="fill:#b8902c; stroke:none;" d="M654 658L655 659L654 658M653 659L654 660L653 659z"/>
<path style="fill:#764f0d; stroke:none;" d="M652 661L653 662L652 661M651 662L652 663L651 662z"/>
<path style="fill:#b8902c; stroke:none;" d="M650 663L651 664L650 663M649 664L650 665L649 664M648 665L649 666L648 665M647 666L648 667L647 666M646 667L647 668L646 667M645 668L646 669L645 668M644 669L645 670L644 669M643 670L644 671L643 670M642 671L643 672L642 671z"/>
<path style="fill:#764f0d; stroke:none;" d="M641 672L642 673L641 672z"/>
<path style="fill:#b8902c; stroke:none;" d="M639 673L640 674L639 673z"/>
<path style="fill:#764f0d; stroke:none;" d="M640 673L641 674L640 673z"/>
<path style="fill:#b8902c; stroke:none;" d="M638 674L639 675L638 674z"/>
<path style="fill:#764f0d; stroke:none;" d="M637 675L638 676L637 675z"/>
<path style="fill:#b8902c; stroke:none;" d="M635 676L636 677L635 676z"/>
<path style="fill:#764f0d; stroke:none;" d="M636 676L637 677L636 676z"/>
<path style="fill:#b8902c; stroke:none;" d="M634 677L635 678L634 677z"/>
<path style="fill:#764f0d; stroke:none;" d="M633 678L634 679L633 678z"/>
<path style="fill:#b8902c; stroke:none;" d="M631 679L632 680L631 679z"/>
<path style="fill:#764f0d; stroke:none;" d="M630 680L631 681L630 680z"/>
<path style="fill:#b8902c; stroke:none;" d="M628 681L629 682L628 681M626 682L627 683L626 682z"/>
<path style="fill:#764f0d; stroke:none;" d="M627 682L628 683L627 682M625 683L626 684L625 683z"/>
<path style="fill:#b8902c; stroke:none;" d="M623 684L624 685L623 684M621 685L622 686L621 685z"/>
<path style="fill:#764f0d; stroke:none;" d="M622 685L623 686L622 685z"/>
<path style="fill:#b8902c; stroke:none;" d="M619 686L620 687L619 686z"/>
<path style="fill:#764f0d; stroke:none;" d="M620 686L621 687L620 686M618 687L619 688L618 687z"/>
<path style="fill:#b8902c; stroke:none;" d="M616 688L617 689L616 688z"/>
<path style="fill:#764f0d; stroke:none;" d="M614 689L615 690L614 689z"/>
<path style="fill:#b8902c; stroke:none;" d="M611 690L612 691L611 690z"/>
<path style="fill:#764f0d; stroke:none;" d="M612 690L613 691L612 690z"/>
<path style="fill:#b8902c; stroke:none;" d="M609 691L610 692L609 691z"/>
<path style="fill:#764f0d; stroke:none;" d="M610 691L611 692L610 691z"/>
<path style="fill:#b8902c; stroke:none;" d="M607 692L608 693L607 692z"/>
<path style="fill:#764f0d; stroke:none;" d="M608 692L609 693L608 692z"/>
<path style="fill:#b8902c; stroke:none;" d="M605 693L606 694L605 693z"/>
<path style="fill:#764f0d; stroke:none;" d="M606 693L607 694L606 693z"/>
<path style="fill:#b8902c; stroke:none;" d="M602 694L603 695L602 694z"/>
<path style="fill:#764f0d; stroke:none;" d="M603 694L604 695L603 694z"/>
<path style="fill:#b8902c; stroke:none;" d="M599 695L600 696L599 695z"/>
<path style="fill:#764f0d; stroke:none;" d="M600 695L601 696L600 695z"/>
<path style="fill:#b8902c; stroke:none;" d="M595.667 696.333L596.333 696.667L595.667 696.333z"/>
<path style="fill:#764f0d; stroke:none;" d="M597.667 696.333L598.333 696.667L597.667 696.333z"/>
<path style="fill:#b8902c; stroke:none;" d="M593 697L594 698L593 697M588 698L589 699L588 698z"/>
<path style="fill:#764f0d; stroke:none;" d="M589.667 698.333L590.333 698.667L589.667 698.333z"/>
<path style="fill:#b8902c; stroke:none;" d="M585 699L586 700L585 699z"/>
<path style="fill:#764f0d; stroke:none;" d="M586 699L587 700L586 699z"/>
<path style="fill:#b8902c; stroke:none;" d="M580.667 700.333L581.333 700.667L580.667 700.333z"/>
<path style="fill:#764f0d; stroke:none;" d="M582 700L582 701L585 701L582 700z"/>
<path style="fill:#b8902c; stroke:none;" d="M576 701L576 702L579 702L576 701z"/>
<path style="fill:#764f0d; stroke:none;" d="M579 701L580 702L579 701z"/>
<path style="fill:#b8902c; stroke:none;" d="M572 702L573 703L572 702z"/>
<path style="fill:#764f0d; stroke:none;" d="M573 702L574 703L573 702z"/>
<path style="fill:#b8902c; stroke:none;" d="M565.667 703.333L566.333 703.667L565.667 703.333z"/>
<path style="fill:#764f0d; stroke:none;" d="M567 703L567 704L570 704L567 703z"/>
<path style="fill:#b8902c; stroke:none;" d="M560.667 704.333L561.333 704.667L560.667 704.333z"/>
<path style="fill:#764f0d; stroke:none;" d="M562.667 704.333L563.333 704.667L562.667 704.333z"/>
<path style="fill:#b8902c; stroke:none;" d="M552 705L552 706L555 706L552 705z"/>
<path style="fill:#764f0d; stroke:none;" d="M555 705L555 706L558 706L555 705z"/>
<path style="fill:#b8902c; stroke:none;" d="M417 706L418 707L417 706z"/>
<path style="fill:#764f0d; stroke:none;" d="M491 706L492 707L491 706z"/>
<path style="fill:#b8902c; stroke:none;" d="M537 706L537 707L543 707L537 706z"/>
<path style="fill:#764f0d; stroke:none;" d="M543 706L543 707L549 707L543 706M320 707L320 708L417 708L387 707L320 707M493 707L493 708L531 708C520.964 703.789 503.911 707 493 707M140 745L140 754L141 754L140 745M859 745L859 754L860 754L859 745M141 756L141 760L142 760L141 756M858 756L858 760L859 760L858 756M142 763L142 766L143 766L142 763M857 763L857 766L858 766L857 763M143.333 767.667L143.667 768.333L143.333 767.667M856.333 767.667L856.667 768.333L856.333 767.667M144 771L144 774L145 774L144 771M855 771L855 774L856 774L855 771M145.333 775.667L145.667 776.333L145.333 775.667M854.333 775.667L854.667 776.333L854.333 775.667M146.333 778.667L146.667 779.333L146.333 778.667M853.333 778.667L853.667 779.333L853.333 778.667M147 781L148 782L147 781M852 781L853 782L852 781M851.333 783.667L851.667 784.333L851.333 783.667M148 784L149 785L148 784M149 786L150 787L149 786M850 786L851 787L850 786M150.333 788.667L150.667 789.333L150.333 788.667M849.333 788.667L849.667 789.333L849.333 788.667M151.333 790.667L151.667 791.333L151.333 790.667M848.333 790.667L848.667 791.333L848.333 790.667M152 793L153 794L152 793M847 793L848 794L847 793M153 795L154 796L153 795M846 795L847 796L846 795M154 797L155 798L154 797M845 797L846 798L845 797M155 798L156 799L155 798M844 798L845 799L844 798M156 800L157 801L156 800M843 800L844 801L843 800M157 802L158 803L157 802M842 802L843 803L842 802M158 803L159 804L158 803M841 803L842 804L841 803M159 805L160 806L159 805M840 805L841 806L840 805M160 807L161 808L160 807M839 807L840 808L839 807M161 808L162 809L161 808M838 808L839 809L838 808M162 809L163 810L162 809M837 809L838 810L837 809M163 811L164 812L163 811M836 811L837 812L836 811M164 812L165 813L164 812M835 812L836 813L835 812M165 813L166 814L165 813M834 813L835 814L834 813M166 815L167 816L166 815M833 815L834 816L833 815M167 816L168 817L167 816M832 816L833 817L832 816M168 817L169 818L168 817M831 817L832 818L831 817M169 818L170 819L169 818M830 818L831 819L830 818M170 819L171 820L170 819M829 819L830 820L829 819M171 820L172 821L171 820M828 820L829 821L828 820M172 821L173 822L172 821M178 827L179 828L178 827M821 827L822 828L821 827M179 828L180 829L179 828M820 828L821 829L820 828M180 829L181 830L180 829M819 829L820 830L819 829M181 830L182 831L181 830M818 830L819 831L818 830M182 831L183 832L182 831M817 831L818 832L817 831M183 832L184 833L183 832M816 832L817 833L816 832M184 833L185 834L184 833M815 833L816 834L815 833M186 834L187 835L186 834M813 834L814 835L813 834M187 835L188 836L187 835M812 835L813 836L812 835M190 837L191 838L190 837M809 837L810 838L809 837M191 838L192 839L191 838M808 838L809 839L808 838M192 839L193 840L192 839M807 839L808 840L807 839M194 840L195 841L194 840M805 840L806 841L805 840M196 841L197 842L196 841M803 841L804 842L803 841M197 842L198 843L197 842M802 842L803 843L802 842M199 843L200 844L199 843M800 843L801 844L800 843M201 844L202 845L201 844M798 844L799 845L798 844M202 845L203 846L202 845M797 845L798 846L797 845M204.667 846.333L205.333 846.667L204.667 846.333M794.667 846.333L795.333 846.667L794.667 846.333M206.667 847.333L207.333 847.667L206.667 847.333M792.667 847.333L793.333 847.667L792.667 847.333M209 848L210 849L209 848M790 848L791 849L790 848M211 849L212 850L211 849M788 849L789 850L788 849M213 850L214 851L213 850M786 850L787 851L786 850M215.667 851.333L216.333 851.667L215.667 851.333M783.667 851.333L784.333 851.667L783.667 851.333M218.667 852.333L219.333 852.667L218.667 852.333M780.667 852.333L781.333 852.667L780.667 852.333M221.667 853.333L222.333 853.667L221.667 853.333M777.667 853.333L778.333 853.667L777.667 853.333M224 854L225 855L224 854M775 854L776 855L775 854M227.667 855.333L228.333 855.667L227.667 855.333M771.667 855.333L772.333 855.667L771.667 855.333M231.667 856.333L232.333 856.667L231.667 856.333M767.667 856.333L768.333 856.667L767.667 856.333M234 857L234 858L237 858L234 857M763 857L763 858L766 858L763 857M240 858L240 859L243 859L240 858M756 858L756 859L760 859L756 858M246 859L246 860L253 860L246 859M746 859L746 860L754 860L746 859z"/>
</svg>
