<svg xmlns="http://www.w3.org/2000/svg" version="1.0" width="1374" height="483">
  <rect fill="#f7b911" width="100%" height="100%"/>
  <g transform="translate(62.5,62.5)" fill="#31271c">
    <path d="M300.94 207.56a96.04 96.04 0 0 0-15.88-24.06c-3.25-3.06-6.7-5.92-10.16-8.87-1.67-1.48-1.97-2.96-.39-4.34a78.49 78.49 0 0 0 20.31-26.33 90.71 90.71 0 0 0 7.2-26.62 66.95 66.95 0 0 0 0-15.09q-1.58-17.06-3.55-22.68-1.28-5.13-2.56-8.97c-10.85-27.8-35.8-46.54-51.97-56.2a136.37 136.37 0 0 0-15.28-6.12 161.02 161.02 0 0 0-27.6-6.3A145.14 145.14 0 0 0 180.14 0H0v82.33h175.12a77.3 77.3 0 0 1 17.16 1.98c7.49 1.57 13.9 4.73 17.45 12.02a36.09 36.09 0 0 1 2.17 11.34v8.29a19.42 19.42 0 0 1-5.52 10.45 33.52 33.52 0 0 1-20.9 7.4c-13.42.98-26.93.2-40.44.39H0v223.73h82.33c2.57 0 2.96-.99 2.96-3.26v-133.5c0-7.2 0-7.2 7.1-7.2h88.64a56.6 56.6 0 0 1 28.2 6.11.79.79 0 0 0 .5 0l2.86 2.66a28.6 28.6 0 0 1 7.5 31.36 27.8 27.8 0 0 1-9.67 12.52 48.12 48.12 0 0 1-25.44 8.09c-11.24.2-22.48 0-33.72 0-2.86 0-3.65.88-3.65 3.55v72.77c0 6.9 0 7.2 7 6.9a398.26 398.26 0 0 0 44.86-1.28q23.27-3.26 39.64-7.9a11.73 11.73 0 0 0 .7-.29 119.9 119.9 0 0 0 33.91-17.65 64.1 64.1 0 0 0 15.97-15.77 5.03 5.03 0 0 0 1-1A86.97 86.97 0 0 0 306.64 282a174.33 174.33 0 0 0 4.15-20.7 93.38 93.38 0 0 0-9.86-53.64zM140.8 78.88z"/>
    <path fill="#e75115" d="M338.4 326.47h54.33v-212.1H338.4zm27.02-235.16a31.06 31.06 0 0 0 30.86-31.56 31.45 31.45 0 0 0-30.86-32.14 31.75 31.75 0 0 0-31.26 32.04c0 17.56 14 31.56 31.26 31.56zm168.32 19.12c-64.1 0-116.06 48.91-116.06 109.75 0 60.64 51.96 109.45 116.06 109.45 64.09 0 116.05-48.81 116.05-109.45 0-60.84-51.96-109.75-116.05-109.75zm0 170.39a61.82 61.82 0 0 1-62.52-60.64c0-33.53 28.2-60.84 62.52-60.84a61.63 61.63 0 0 1 62.51 60.84 61.53 61.53 0 0 1-62.51 60.64zm388-170.39a97.62 97.62 0 0 0-66.36 26.92c-14.5-18.73-37.47-26.92-70.3-26.92a94.66 94.66 0 0 0-55.22 17.16v-13.21h-54.63v212.2h54.63V176.1a65.08 65.08 0 0 1 45.75-16.76c28.1 0 42.6 16.27 42.6 48.71v118.42h54.42V209.04c0-19.13-.4-27.02-2.36-32.84a58.57 58.57 0 0 1 42.3-16.76c29.58 0 46.05 15.97 46.05 48.71v118.42h54.23V208.25c0-68.73-28.5-97.72-91.01-97.72zm326.87 125.43c0-3.55.39-7.8.39-12.13 0-66.06-37.96-113.4-103.14-113.4-64.09 0-108.66 49.01-108.66 109.85 0 60.64 44.57 109.45 108.66 109.45 41.41 0 76.12-17.16 95.65-43.78l-34.71-28.9a68.04 68.04 0 0 1-54.73 26.24c-32.44 0-54.72-19.63-60.54-47.33zm-102.85-82.04c36.29 0 49.2 22.97 51.18 47.33h-105.11c5.03-26.23 25.34-47.33 53.93-47.33z"/>
  </g>
</svg>