<?xml version="1.0" encoding="UTF-8"?>
<svg width="460" height="460" version="1.0" xmlns="http://www.w3.org/2000/svg">
 <rect width="100%" height="100%"/>
 <path d="m230 52.792-91.158 157.88c34.588-10.663 71.8-12.245 107.87-3.7365l30.807 7.2718-28.985 122.91-30.852-7.2716c-23.699-5.5906-48.404-0.0512-67.51 15.052-9.5568 7.5592-17.086 17.05-22.247 27.696l-28.517-13.796c7.2143-14.9 17.761-28.191 31.085-38.738 26.651-21.095 61.398-28.843 94.48-21.036l14.449-61.254c-51.756-12.201-106.3-0.0511-148 32.952-41.695 33-66.05 83.308-66.05 136.48l409.25 7e-3z" fill="#60a5fa" stroke-linecap="square" stroke-width="31.186" style="paint-order:markers fill stroke"/>
</svg>
